<?xml version="1.0" encoding="UTF-8" standalone="no"?>
<svg
   xmlns:dc="http://purl.org/dc/elements/1.1/"
   xmlns:cc="http://creativecommons.org/ns#"
   xmlns:rdf="http://www.w3.org/1999/02/22-rdf-syntax-ns#"
   xmlns:svg="http://www.w3.org/2000/svg"
   xmlns="http://www.w3.org/2000/svg"
   id="svg8"
   version="1.1"
   viewBox="0 0 5.6278887 5.4818443"
   height="20.718781"
   width="21.270761">
  <defs
     id="defs2" />
  <metadata
     id="metadata5">
    <rdf:RDF>
      <cc:Work
         rdf:about="">
        <dc:format>image/svg+xml</dc:format>
        <dc:type
           rdf:resource="http://purl.org/dc/dcmitype/StillImage" />
        <dc:title></dc:title>
      </cc:Work>
    </rdf:RDF>
  </metadata>
  <g
     transform="translate(-19.864626,-127.94956)"
     id="layer1">
    <g
       style="fill:#ffffff;fill-opacity:1"
       transform="matrix(0.21118942,0,0,0.21118942,19.864605,127.87649)"
       id="g4543">
      <g
         style="fill:#ffffff;fill-opacity:1"
         id="g4487">
        <path
           style="fill:#ffffff;fill-opacity:1"
           d="M 26.157,1.238 C 25.723,0.671 25.05,0.346 24.31,0.346 c -0.478,0 -0.973,0.133 -1.472,0.395 L 1.593,11.88 c -1.51,0.793 -1.615,1.987 -1.59,2.463 0.024,0.479 0.255,1.654 1.839,2.283 L 4.557,17.7 c 0.515,0.204 1.091,0.309 1.711,0.309 0.098,0 0.192,-0.013 0.289,-0.018 -0.037,0.048 -0.082,0.085 -0.116,0.135 -0.506,0.757 -0.531,1.783 -0.073,2.888 0.007,0.019 0.014,0.035 0.021,0.051 0.803,1.779 1.696,3.787 1.804,4.066 0.266,0.694 0.944,1.172 1.688,1.172 1.146,0 1.486,-0.552 3.361,-3.604 0.146,-0.224 0.471,-0.744 0.526,-1.406 0.219,0.089 0.425,0.171 0.601,0.242 l 3.008,1.226 c 0.603,0.246 1.131,0.463 1.409,0.578 0.086,0.053 0.177,0.098 0.272,0.137 0.212,0.084 0.438,0.127 0.665,0.127 1.368,0 1.696,-1.185 1.872,-1.82 0.087,-0.314 0.207,-0.749 0.336,-1.229 L 26.519,3.696 C 26.865,2.423 26.44,1.61 26.157,1.238 Z m -14.43,20.501 c 0,0 -1.702,2.771 -1.847,2.771 -0.004,0 -0.006,-0.002 -0.008,-0.006 -0.167,-0.449 -1.849,-4.176 -1.849,-4.176 -0.31,-0.747 -0.254,-1.387 0.279,-1.387 0.117,0 0.257,0.031 0.421,0.099 l 1.306,0.679 c 0.218,0.149 0.456,0.278 0.718,0.381 l 0.066,0.025 0.123,0.062 c 1.009,0.534 1.33,0.727 0.791,1.552 z M 24.789,3.224 20.203,20.082 c -0.259,0.95 -0.475,1.727 -0.479,1.727 -0.004,-0.002 -0.009,-0.02 -0.009,-0.023 0,-0.006 -0.748,-0.312 -1.662,-0.686 l -3.01,-1.226 C 14.129,19.504 12.63,18.905 11.711,18.551 L 11.559,18.49 10.997,18.198 C 10.44,17.771 10.391,17.067 10.951,16.47 l 9.312,-9.971 c 0.374,-0.399 0.515,-0.605 0.434,-0.605 -0.064,0 -0.271,0.133 -0.617,0.404 L 8.298,15.592 c -0.514,0.401 -1.295,0.625 -2.029,0.625 -0.376,0 -0.741,-0.06 -1.052,-0.183 L 2.504,14.961 C 1.587,14.598 1.552,13.928 2.425,13.468 L 23.672,2.327 c 0.245,-0.128 0.46,-0.188 0.638,-0.188 0.457,0 0.665,0.4 0.479,1.085 z"
           id="path4485" />
      </g>
      <g
         style="fill:#ffffff;fill-opacity:1"
         id="g4489" />
      <g
         style="fill:#ffffff;fill-opacity:1"
         id="g4491" />
      <g
         style="fill:#ffffff;fill-opacity:1"
         id="g4493" />
      <g
         style="fill:#ffffff;fill-opacity:1"
         id="g4495" />
      <g
         style="fill:#ffffff;fill-opacity:1"
         id="g4497" />
      <g
         style="fill:#ffffff;fill-opacity:1"
         id="g4499" />
      <g
         style="fill:#ffffff;fill-opacity:1"
         id="g4501" />
      <g
         style="fill:#ffffff;fill-opacity:1"
         id="g4503" />
      <g
         style="fill:#ffffff;fill-opacity:1"
         id="g4505" />
      <g
         style="fill:#ffffff;fill-opacity:1"
         id="g4507" />
      <g
         style="fill:#ffffff;fill-opacity:1"
         id="g4509" />
      <g
         style="fill:#ffffff;fill-opacity:1"
         id="g4511" />
      <g
         style="fill:#ffffff;fill-opacity:1"
         id="g4513" />
      <g
         style="fill:#ffffff;fill-opacity:1"
         id="g4515" />
      <g
         style="fill:#ffffff;fill-opacity:1"
         id="g4517" />
    </g>
  </g>
</svg>
