<?xml version="1.0" encoding="iso-8859-1"?>
<!-- Generator: Adobe Illustrator 19.0.0, SVG Export Plug-In . SVG Version: 6.00 Build 0)  -->
<svg version="1.1" id="Capa_1" xmlns="http://www.w3.org/2000/svg" xmlns:xlink="http://www.w3.org/1999/xlink" x="0px" y="0px"
	 viewBox="0 0 512 512" style="enable-background:new 0 0 512 512;" xml:space="preserve">
<linearGradient id="SVGID_1_" gradientUnits="userSpaceOnUse" x1="0" y1="258" x2="512" y2="258" gradientTransform="matrix(1 0 0 -1 0 514)">
	<stop  offset="0" style="stop-color:#80D8FF"/>
	<stop  offset="1" style="stop-color:#EA80FC"/>
</linearGradient>
<path style="fill:url(#SVGID_1_);" d="M256,0C114.516,0,0,114.497,0,256c0,141.484,114.497,256,256,256
	c141.484,0,256-114.497,256-256C512,114.516,397.503,0,256,0z M256,40c28.879,0,56.893,5.63,82.789,16.37
	C205.042,104.134,100,219.132,69.215,364.629C50.167,332,40,294.784,40,256C40,136.623,136.607,40,256,40z M102.624,408.079
	c18.234-158.953,134.021-286.415,283.651-324.4c13.433,10.199,24.924,21.299,35.095,33.362
	c-154.689,26.765-274.693,158.918-280.98,321.502c-13.279-8.446-25.727-18.41-37.125-29.807
	C103.048,408.519,102.84,408.296,102.624,408.079z M256,472c-26.309,0-51.895-4.686-75.821-13.638
	c-3.219-155.191,112.374-287.474,266.257-304.5C463.134,184.897,472,219.766,472,256C472,375.377,375.393,472,256,472z"/>
<g>
</g>
<g>
</g>
<g>
</g>
<g>
</g>
<g>
</g>
<g>
</g>
<g>
</g>
<g>
</g>
<g>
</g>
<g>
</g>
<g>
</g>
<g>
</g>
<g>
</g>
<g>
</g>
<g>
</g>
</svg>
