<?xml version="1.0" encoding="UTF-8" standalone="no"?>
<svg
   xmlns:dc="http://purl.org/dc/elements/1.1/"
   xmlns:cc="http://creativecommons.org/ns#"
   xmlns:rdf="http://www.w3.org/1999/02/22-rdf-syntax-ns#"
   xmlns:svg="http://www.w3.org/2000/svg"
   xmlns="http://www.w3.org/2000/svg"
   id="svg8"
   version="1.1"
   viewBox="0 0 7.447219 7.4472196"
   height="28.146971"
   width="28.146971">
  <defs
     id="defs2" />
  <metadata
     id="metadata5">
    <rdf:RDF>
      <cc:Work
         rdf:about="">
        <dc:format>image/svg+xml</dc:format>
        <dc:type
           rdf:resource="http://purl.org/dc/dcmitype/StillImage" />
        <dc:title></dc:title>
      </cc:Work>
    </rdf:RDF>
  </metadata>
  <g
     transform="translate(-17.978492,-126.86806)"
     id="layer1">
    <g
       transform="matrix(0.01454535,0,0,0.01454535,17.978492,126.86806)"
       id="g4624">
      <g
         id="g4549">
        <g
           id="g4547">
          <path
             style="fill:#ffffff"
             d="M 352,0 H 160 C 71.648,0 0,71.648 0,160 v 192 c 0,88.352 71.648,160 160,160 h 192 c 88.352,0 160,-71.648 160,-160 V 160 C 512,71.648 440.352,0 352,0 Z m 112,352 c 0,61.76 -50.24,112 -112,112 H 160 C 98.24,464 48,413.76 48,352 V 160 C 48,98.24 98.24,48 160,48 h 192 c 61.76,0 112,50.24 112,112 z"
             id="path4545" />
        </g>
      </g>
      <g
         id="g4555">
        <g
           id="g4553">
          <path
             style="fill:#ffffff"
             d="m 256,128 c -70.688,0 -128,57.312 -128,128 0,70.688 57.312,128 128,128 70.688,0 128,-57.312 128,-128 0,-70.688 -57.312,-128 -128,-128 z m 0,208 c -44.096,0 -80,-35.904 -80,-80 0,-44.128 35.904,-80 80,-80 44.096,0 80,35.872 80,80 0,44.096 -35.904,80 -80,80 z"
             id="path4551" />
        </g>
      </g>
      <g
         id="g4561">
        <g
           id="g4559">
          <circle
             style="fill:#ffffff"
             cx="393.60001"
             cy="118.4"
             r="17.056"
             id="circle4557" />
        </g>
      </g>
      <g
         id="g4563" />
      <g
         id="g4565" />
      <g
         id="g4567" />
      <g
         id="g4569" />
      <g
         id="g4571" />
      <g
         id="g4573" />
      <g
         id="g4575" />
      <g
         id="g4577" />
      <g
         id="g4579" />
      <g
         id="g4581" />
      <g
         id="g4583" />
      <g
         id="g4585" />
      <g
         id="g4587" />
      <g
         id="g4589" />
      <g
         id="g4591" />
    </g>
    <g
       transform="matrix(0.26458333,0,0,0.26458333,-44.874758,63.6051)"
       id="g4686">
      <path
         style="fill:url(#SVGID_1_)"
         d="m 13.874,365.043 c 37.131,11.957 199.021,64.091 235.995,75.998 6.009,1.935 10.392,0.364 12.286,-0.008 0.001,0 0.002,-0.001 0.003,-0.001 l 235.968,-75.99 c 8.265,-2.662 13.869,-10.353 13.869,-19.037 V 20.013 c 0,-13.592 -13.262,-23.183 -26.13,-19.037 L 256,75.001 26.136,0.977 C 13.224,-3.183 0.005,6.47 0.005,20.013 v 325.993 c 0,8.684 5.604,16.376 13.869,19.037 z M 276,110.582 471.996,47.465 V 331.436 L 276,394.553 Z M 40.004,47.465 236,110.582 V 394.553 L 40.004,331.436 Z M 498.126,435.042 262.19,511.021 c -4.042,1.32 -8.433,1.29 -12.385,-0.001 L 13.874,435.042 C 3.361,431.656 -2.418,420.388 0.968,409.875 4.354,399.362 15.625,393.585 26.135,396.969 L 256,470.993 485.864,396.969 c 10.516,-3.387 21.782,2.393 25.167,12.906 3.387,10.513 -2.392,21.781 -12.905,25.167 z"
         id="path4631" />
      <g
         id="g4633" />
      <g
         id="g4635" />
      <g
         id="g4637" />
      <g
         id="g4639" />
      <g
         id="g4641" />
      <g
         id="g4643" />
      <g
         id="g4645" />
      <g
         id="g4647" />
      <g
         id="g4649" />
      <g
         id="g4651" />
      <g
         id="g4653" />
      <g
         id="g4655" />
      <g
         id="g4657" />
      <g
         id="g4659" />
      <g
         id="g4661" />
    </g>
  </g>
</svg>
