<?xml version="1.0" encoding="iso-8859-1"?>
<!-- Generator: Adobe Illustrator 19.0.0, SVG Export Plug-In . SVG Version: 6.00 Build 0)  -->
<svg version="1.1" id="Capa_1" xmlns="http://www.w3.org/2000/svg" xmlns:xlink="http://www.w3.org/1999/xlink" x="0px" y="0px"
	 viewBox="0 0 512 512" style="enable-background:new 0 0 512 512;" xml:space="preserve">
<linearGradient id="SVGID_1_" gradientUnits="userSpaceOnUse" x1="0" y1="257.9999" x2="511.9999" y2="257.9999" gradientTransform="matrix(1 0 0 -1 0 513.9999)">
	<stop  offset="0" style="stop-color:#80D8FF"/>
	<stop  offset="1" style="stop-color:#EA80FC"/>
</linearGradient>
<path style="fill:url(#SVGID_1_);" d="M13.874,365.043C51.005,377,212.895,429.134,249.869,441.041
	c6.009,1.935,10.392,0.364,12.286-0.008c0.001,0,0.002-0.001,0.003-0.001l235.968-75.99c8.265-2.662,13.869-10.353,13.869-19.037
	V20.013c0-13.592-13.262-23.183-26.13-19.037L256,75.001L26.136,0.977C13.224-3.183,0.005,6.47,0.005,20.013v325.993
	C0.005,354.69,5.609,362.382,13.874,365.043z M276,110.582l195.996-63.117v283.971L276,394.553V110.582z M40.004,47.465L236,110.582
	v283.971L40.004,331.436V47.465z M498.126,435.042L262.19,511.021c-4.042,1.32-8.433,1.29-12.385-0.001L13.874,435.042
	c-10.513-3.386-16.292-14.654-12.906-25.167s14.657-16.29,25.167-12.906L256,470.993l229.864-74.024
	c10.516-3.387,21.782,2.393,25.167,12.906C514.418,420.388,508.639,431.656,498.126,435.042z"/>
<g>
</g>
<g>
</g>
<g>
</g>
<g>
</g>
<g>
</g>
<g>
</g>
<g>
</g>
<g>
</g>
<g>
</g>
<g>
</g>
<g>
</g>
<g>
</g>
<g>
</g>
<g>
</g>
<g>
</g>
</svg>
