<?xml version="1.0" encoding="iso-8859-1"?>
<!-- Generator: Adobe Illustrator 19.0.0, SVG Export Plug-In . SVG Version: 6.00 Build 0)  -->
<svg version="1.1" id="Capa_1" xmlns="http://www.w3.org/2000/svg" xmlns:xlink="http://www.w3.org/1999/xlink" x="0px" y="0px"
	 viewBox="0 0 512 512" style="enable-background:new 0 0 512 512;" xml:space="preserve">
<linearGradient id="SVGID_1_" gradientUnits="userSpaceOnUse" x1="40" y1="258" x2="472" y2="258" gradientTransform="matrix(1 0 0 -1 0 514)">
	<stop  offset="0" style="stop-color:#80D8FF"/>
	<stop  offset="1" style="stop-color:#EA80FC"/>
</linearGradient>
<path style="fill:url(#SVGID_1_);" d="M436,249.813c0-9.713,0-199.357,0-209.813h16c11.046,0,20-8.954,20-20s-8.954-20-20-20h-36
	c-11.046,0-20,8.954-20,20v32.064l-16.207-16.207C376.042,32.107,370.955,30,365.65,30h-219.3c-5.305,0-10.392,2.107-14.143,5.857
	L116,52.064V20c0-11.046-8.954-20-20-20H60C48.954,0,40,8.954,40,20s8.954,20,20,20h16c0,10.457,0,200.1,0,209.813l-32.507,47.514
	C41.218,300.653,40,304.59,40,308.62V416c0,11.046,8.954,20,20,20h50v26c0,27.57,22.43,50,50,50h16c27.57,0,50-22.43,50-50v-26h60
	v26c0,27.57,22.43,50,50,50h16c27.57,0,50-22.43,50-50v-26h50c11.046,0,20-8.954,20-20V308.62c0-4.03-1.218-7.967-3.493-11.293
	L436,249.813z M154.634,70h202.732L396,108.634V236H116V108.634L154.634,70z M186,462c0,5.514-4.486,10-10,10h-16
	c-5.514,0-10-4.486-10-10v-26h36V462z M362,462c0,5.514-4.486,10-10,10h-16c-5.514,0-10-4.486-10-10v-26h36V462z M432,396
	c-101.966,0-249.632,0-352,0v-81.193L106.55,276h298.9L432,314.807V396z M303.5,361c0,11.046-8.954,20-20,20h-55
	c-11.046,0-20-8.954-20-20s8.954-20,20-20h55C294.546,341,303.5,349.954,303.5,361z M303.5,311c0,11.046-8.954,20-20,20h-55
	c-11.046,0-20-8.954-20-20s8.954-20,20-20h55C294.546,291,303.5,299.954,303.5,311z"/>
<g>
</g>
<g>
</g>
<g>
</g>
<g>
</g>
<g>
</g>
<g>
</g>
<g>
</g>
<g>
</g>
<g>
</g>
<g>
</g>
<g>
</g>
<g>
</g>
<g>
</g>
<g>
</g>
<g>
</g>
</svg>
