<?xml version="1.0" encoding="iso-8859-1"?>
<!-- Generator: Adobe Illustrator 19.0.0, SVG Export Plug-In . SVG Version: 6.00 Build 0)  -->
<svg version="1.1" id="Capa_1" xmlns="http://www.w3.org/2000/svg" xmlns:xlink="http://www.w3.org/1999/xlink" x="0px" y="0px"
	 viewBox="0 0 512 512" style="enable-background:new 0 0 512 512;" xml:space="preserve">
<linearGradient id="SVGID_1_" gradientUnits="userSpaceOnUse" x1="86" y1="258" x2="426" y2="258" gradientTransform="matrix(1 0 0 -1 0 514)">
	<stop  offset="0" style="stop-color:#80D8FF"/>
	<stop  offset="1" style="stop-color:#EA80FC"/>
</linearGradient>
<path style="fill:url(#SVGID_1_);" d="M256,0C162.335,0,86,76.224,86,170c0,74.723,68.279,143.956,94.228,186.427
	c3.633,5.946,10.099,9.573,17.067,9.573c40.555,0,92.904,0,117.411,0c6.968,0,13.434-3.627,17.067-9.573
	C357.806,313.817,426,244.762,426,170C426,75.99,349.452,0,256,0z M310.221,51.862c14.96,83.476,1.361,187.117-47.237,274.138
	h-13.967c-48.358-86.591-62.284-190.172-47.237-274.138C218.292,44.253,236.658,40,256,40S293.708,44.253,310.221,51.862z M126,170
	c0-32.296,11.842-61.876,31.406-84.635c-5.537,75.623,7.458,153.259,37.951,222.519C167.133,269.229,126,217.428,126,170z
	 M316.643,307.885c30.432-69.122,43.499-146.745,37.951-222.519C374.158,108.124,386,137.704,386,170
	C386,217.466,344.827,269.284,316.643,307.885z M307.746,406H204.254c-5.882,0-11.466,2.589-15.267,7.08
	c-3.8,4.49-5.431,10.426-4.458,16.227l11.064,66c1.615,9.635,9.955,16.693,19.725,16.693h81.363c9.77,0,18.109-7.058,19.725-16.693
	l11.064-66c0.973-5.801-0.658-11.737-4.458-16.227C319.212,408.589,313.628,406,307.746,406z M279.755,472h-47.511l-4.359-26h56.229
	L279.755,472z"/>
<g>
</g>
<g>
</g>
<g>
</g>
<g>
</g>
<g>
</g>
<g>
</g>
<g>
</g>
<g>
</g>
<g>
</g>
<g>
</g>
<g>
</g>
<g>
</g>
<g>
</g>
<g>
</g>
<g>
</g>
</svg>
