<?xml version="1.0" encoding="iso-8859-1"?>
<!-- Generator: Adobe Illustrator 19.0.0, SVG Export Plug-In . SVG Version: 6.00 Build 0)  -->
<svg version="1.1" id="Capa_1" xmlns="http://www.w3.org/2000/svg" xmlns:xlink="http://www.w3.org/1999/xlink" x="0px" y="0px"
	 viewBox="0 0 512 512" style="enable-background:new 0 0 512 512;" xml:space="preserve">
<linearGradient id="SVGID_1_" gradientUnits="userSpaceOnUse" x1="0" y1="258" x2="512" y2="258" gradientTransform="matrix(1 0 0 -1 0 514)">
	<stop  offset="0" style="stop-color:#80D8FF"/>
	<stop  offset="1" style="stop-color:#EA80FC"/>
</linearGradient>
<path style="fill:url(#SVGID_1_);" d="M256,0C114.516,0,0,114.497,0,256c0,141.483,114.497,256,256,256
	c141.483,0,256-114.497,256-256C512,114.517,397.503,0,256,0z M422.227,393.942l-71.32-71.32C364.189,303.756,372,280.774,372,256
	s-7.811-47.756-21.093-66.622l71.32-71.32C454.45,156.752,472,205.024,472,256S454.45,355.248,422.227,393.942z M180,256
	c0-41.906,34.093-76,76-76c41.906,0,76,34.094,76,76s-34.094,76-76,76C214.093,332,180,297.906,180,256z M393.942,89.773
	l-71.32,71.32C303.756,147.811,280.774,140,256,140s-47.756,7.811-66.622,21.094l-71.32-71.32C156.751,57.55,205.024,40,256,40
	S355.248,57.55,393.942,89.773z M89.773,118.058l71.32,71.32C147.811,208.244,140,231.226,140,256s7.811,47.756,21.093,66.621
	l-71.32,71.32C57.55,355.248,40,306.976,40,256S57.55,156.752,89.773,118.058z M118.058,422.227l71.32-71.32
	C208.244,364.189,231.226,372,256,372s47.756-7.811,66.621-21.093l71.32,71.32C355.248,454.45,306.976,472,256,472
	S156.751,454.45,118.058,422.227z"/>
<g>
</g>
<g>
</g>
<g>
</g>
<g>
</g>
<g>
</g>
<g>
</g>
<g>
</g>
<g>
</g>
<g>
</g>
<g>
</g>
<g>
</g>
<g>
</g>
<g>
</g>
<g>
</g>
<g>
</g>
</svg>
