<?xml version="1.0" encoding="iso-8859-1"?>
<!-- Generator: Adobe Illustrator 19.0.0, SVG Export Plug-In . SVG Version: 6.00 Build 0)  -->
<svg version="1.1" id="Capa_1" xmlns="http://www.w3.org/2000/svg" xmlns:xlink="http://www.w3.org/1999/xlink" x="0px" y="0px"
	 viewBox="0 0 512.001 512.001" style="enable-background:new 0 0 512.001 512.001;" xml:space="preserve">
<linearGradient id="SVGID_1_" gradientUnits="userSpaceOnUse" x1="0" y1="258.0014" x2="512.0008" y2="258.0014" gradientTransform="matrix(1 0 0 -1 0 514.0018)">
	<stop  offset="0" style="stop-color:#80D8FF"/>
	<stop  offset="1" style="stop-color:#EA80FC"/>
</linearGradient>
<path style="fill:url(#SVGID_1_);" d="M138.34,145.111l46.724-81.079C199.87,38.339,226.387,23,255.999,23
	s56.129,15.339,70.936,41.032l66.721,115.78c5.523,9.582,2.245,21.836-7.319,27.368c-9.531,5.513-21.775,2.284-27.316-7.333
	L292.299,84.066c-7.577-13.148-21.147-20.997-36.3-20.997c-15.153,0-28.723,7.849-36.3,20.997l-46.724,81.079
	c-5.522,9.583-17.752,12.866-27.316,7.333C136.096,166.946,132.818,154.693,138.34,145.111z M216.006,448.931H82.04
	c-15.153,0-28.723-7.849-36.299-20.997c-7.577-13.148-7.577-28.847,0-41.994l87.242-151.392c5.523-9.582,2.245-21.836-7.319-27.368
	c-9.565-5.531-21.794-2.249-27.316,7.333L11.104,365.905c-14.806,25.693-14.806,56.371,0,82.063C25.91,473.661,52.428,489,82.04,489
	h133.966c11.044,0,19.997-8.97,19.997-20.035S227.049,448.931,216.006,448.931z M500.895,365.905L433.65,249.214
	c-5.522-9.582-17.752-12.865-27.316-7.333c-9.564,5.532-12.842,17.785-7.319,27.368L466.26,385.94
	c7.577,13.148,7.577,28.847,0,41.994c-7.576,13.148-21.146,20.997-36.299,20.997H295.993c-11.044,0-19.997,8.97-19.997,20.035
	s8.953,20.035,19.997,20.035H429.96c29.612,0,56.129-15.339,70.935-41.032C515.703,422.276,515.703,391.598,500.895,365.905z
	 M255.999,361.181c-35.835,0-64.99-29.209-64.99-65.112s29.155-65.112,64.99-65.112s64.99,29.209,64.99,65.112
	S291.835,361.181,255.999,361.181z M280.996,296.069c0-13.809-11.213-25.043-24.996-25.043s-24.996,11.234-24.996,25.043
	s11.213,25.043,24.996,25.043S280.996,309.878,280.996,296.069z"/>
<g>
</g>
<g>
</g>
<g>
</g>
<g>
</g>
<g>
</g>
<g>
</g>
<g>
</g>
<g>
</g>
<g>
</g>
<g>
</g>
<g>
</g>
<g>
</g>
<g>
</g>
<g>
</g>
<g>
</g>
</svg>
