<?xml version="1.0" encoding="UTF-8" standalone="no"?>
<svg
   xmlns:osb="http://www.openswatchbook.org/uri/2009/osb"
   xmlns:dc="http://purl.org/dc/elements/1.1/"
   xmlns:cc="http://creativecommons.org/ns#"
   xmlns:rdf="http://www.w3.org/1999/02/22-rdf-syntax-ns#"
   xmlns:svg="http://www.w3.org/2000/svg"
   xmlns="http://www.w3.org/2000/svg"
   id="svg8"
   version="1.1"
   viewBox="0 0 6.0513185 8.5932391"
   height="32.478382"
   width="22.871126">
  <defs
     id="defs2">
    <linearGradient
       osb:paint="solid"
       id="linearGradient6189">
      <stop
         id="stop6187"
         offset="0"
         style="stop-color:#000000;stop-opacity:1;" />
    </linearGradient>
  </defs>
  <metadata
     id="metadata5">
    <rdf:RDF>
      <cc:Work
         rdf:about="">
        <dc:format>image/svg+xml</dc:format>
        <dc:type
           rdf:resource="http://purl.org/dc/dcmitype/StillImage" />
        <dc:title></dc:title>
      </cc:Work>
    </rdf:RDF>
  </metadata>
  <g
     transform="translate(-31.239596,-145.43842)"
     id="layer1">
    <path
       id="path6322"
       d=""
       style="fill:#000000;stroke-width:0.26458335" />
    <path
       id="path6320"
       d=""
       style="fill:#000000;stroke-width:0.26458335" />
    <path
       id="path6318"
       d=""
       style="fill:#000000;stroke-width:0.26458335" />
    <g
       style="fill:#abff00;fill-opacity:1"
       transform="translate(-9.9336344,27.988594)"
       id="layer1-7">
      <path
         id="path6322-5"
         d=""
         style="fill:#abff00;fill-opacity:1;stroke-width:0.26458335" />
      <path
         id="path6320-7"
         d=""
         style="fill:#abff00;fill-opacity:1;stroke-width:0.26458335" />
      <path
         id="path6318-3"
         d=""
         style="fill:#abff00;fill-opacity:1;stroke-width:0.26458335" />
      <g
         transform="translate(388.37054,26.553769)"
         id="g6352">
        <path
           id="path6358"
           d="m 24.953933,182.89148 c 0.397576,-0.0604 1.111951,-0.0616 1.5875,-0.003 0.475549,0.0589 0.150259,0.10828 -0.722866,0.10977 -0.873125,0.002 -1.262211,-0.0467 -0.864634,-0.10707 z m 5.296405,-5.3e-4 c 0.400183,-0.0606 1.055026,-0.0606 1.455209,0 0.400182,0.0606 0.07276,0.11022 -0.727605,0.11022 -0.800364,0 -1.127786,-0.0496 -0.727604,-0.11022 z m -9.392709,-0.2503 c 0.181901,-0.0734 0.479558,-0.0734 0.661459,0 0.181901,0.0734 0.03307,0.13345 -0.330729,0.13345 -0.363803,0 -0.512631,-0.0601 -0.33073,-0.13345 z m 14.568621,-0.006 c 0.190995,-0.0764 0.419201,-0.067 0.507119,0.0209 0.08792,0.0879 -0.06835,0.15045 -0.347266,0.13897 -0.308226,-0.0127 -0.370919,-0.0754 -0.159853,-0.15986 z m -16.933334,-0.26458 c 0.190994,-0.0764 0.4192,-0.067 0.507119,0.0209 0.08792,0.0879 -0.06835,0.15045 -0.347266,0.13896 -0.308226,-0.0127 -0.370919,-0.0754 -0.159853,-0.15985 z m 19.579168,0 c 0.190994,-0.0764 0.4192,-0.067 0.507119,0.0209 0.08792,0.0879 -0.06835,0.15045 -0.347266,0.13896 -0.308227,-0.0127 -0.37092,-0.0754 -0.159853,-0.15985 z m -21.695835,-0.26458 c 0.190995,-0.0764 0.4192,-0.067 0.507119,0.0209 0.08792,0.0879 -0.06835,0.15046 -0.347266,0.13897 -0.308226,-0.0127 -0.370919,-0.0754 -0.159853,-0.15985 z m 5.799262,-4.75531 c 0.179131,-0.0725 0.536318,-0.0769 0.79375,-0.01 0.257432,0.0671 0.110869,0.12638 -0.325694,0.13177 -0.436563,0.005 -0.647187,-0.0495 -0.468056,-0.12197 z m 11.646702,-0.002 c 0.181902,-0.0734 0.479558,-0.0734 0.661459,0 0.181901,0.0734 0.03307,0.13345 -0.330729,0.13345 -0.363802,0 -0.512631,-0.06 -0.33073,-0.13345 z m -14.270964,-0.2701 c 0.190995,-0.0764 0.419201,-0.067 0.507119,0.0209 0.08792,0.0879 -0.06835,0.15045 -0.347266,0.13896 -0.308226,-0.0127 -0.370919,-0.0754 -0.159853,-0.15985 z m 17.197918,0 c 0.190995,-0.0764 0.4192,-0.067 0.507119,0.0209 0.08792,0.0879 -0.06835,0.15045 -0.347266,0.13896 -0.308226,-0.0127 -0.370919,-0.0754 -0.159853,-0.15985 z m -61.598311,-13.44532 c -0.181158,-0.21828 -0.269846,-0.39688 -0.197086,-0.39688 0.07276,0 0.280512,0.1786 0.461669,0.39688 0.181158,0.21828 0.269846,0.39687 0.197086,0.39687 -0.07276,0 -0.280512,-0.17859 -0.461669,-0.39687 z m 106.891673,-0.49677 c 0,-0.0549 0.208359,-0.2633 0.463021,-0.46302 0.419645,-0.32911 0.429003,-0.31975 0.0999,0.0999 -0.345644,0.44073 -0.562917,0.58089 -0.562917,0.36313 z m -108.901186,-1.28917 -0.504029,-0.59531 0.595312,0.50403 c 0.559446,0.47366 0.715762,0.68659 0.504029,0.68659 -0.05021,0 -0.318098,-0.26789 -0.595312,-0.59531 z m 111.943894,-1.52135 c 0.568389,-0.58209 1.092968,-1.05834 1.165728,-1.05834 0.07276,0 -0.332756,0.47625 -0.901144,1.05834 -0.568389,0.58208 -1.092968,1.05833 -1.165728,1.05833 -0.07276,0 0.332756,-0.47625 0.901144,-1.05833 z m -105.965631,-0.39688 c -0.181158,-0.21828 -0.269846,-0.39687 -0.197085,-0.39687 0.07276,0 0.280511,0.17859 0.461668,0.39687 0.181158,0.21828 0.269846,0.39688 0.197086,0.39688 -0.07276,0 -0.280511,-0.1786 -0.461669,-0.39688 z m -1.852083,-1.5875 c -0.181158,-0.21828 -0.269846,-0.39687 -0.197086,-0.39687 0.07276,0 0.280511,0.17859 0.461669,0.39687 0.181157,0.21828 0.269846,0.39688 0.197085,0.39688 -0.07276,0 -0.280511,-0.1786 -0.461668,-0.39688 z m 110.860423,-1.05833 c 0.642681,-0.65485 1.228042,-1.19063 1.300803,-1.19063 0.07276,0 -0.393539,0.53578 -1.03622,1.19063 -0.642681,0.65484 -1.228042,1.19062 -1.300803,1.19062 -0.07276,0 0.393539,-0.53578 1.03622,-1.19062 z m -7.672917,0 c 0.341775,-0.3638 0.680939,-0.66146 0.7537,-0.66146 0.07276,0 -0.147341,0.29766 -0.489117,0.66146 -0.341775,0.3638 -0.680939,0.66146 -0.7537,0.66146 -0.07276,0 0.147341,-0.29766 0.489117,-0.66146 z m -113.663687,-1.78594 -0.504028,-0.59531 0.595312,0.50403 c 0.559447,0.47366 0.715762,0.68659 0.504028,0.68659 -0.05021,0 -0.318097,-0.26789 -0.595312,-0.59531 z m 6.879167,-0.52917 -0.504028,-0.59531 0.595312,0.50403 c 0.559446,0.47366 0.715762,0.6866 0.504029,0.6866 -0.05021,0 -0.318098,-0.26789 -0.595313,-0.59532 z m 46.968657,-0.39687 -0.641433,-0.72761 0.727605,0.64144 c 0.680056,0.59951 0.848939,0.81377 0.641432,0.81377 -0.04739,0 -0.374814,-0.32742 -0.727604,-0.7276 z m 14.836693,0.0661 c 0.341776,-0.3638 0.68094,-0.66145 0.7537,-0.66145 0.07276,0 -0.147341,0.29765 -0.489116,0.66145 -0.341776,0.36381 -0.68094,0.66146 -0.7537,0.66146 -0.07276,0 0.147341,-0.29765 0.489116,-0.66146 z m 55.033337,0.0324 c 0,-0.0549 0.208359,-0.2633 0.463021,-0.46302 0.419645,-0.32911 0.429003,-0.31975 0.0999,0.0999 -0.345644,0.44073 -0.562917,0.58089 -0.562917,0.36313 z m -125.412507,-1.09073 c -0.181158,-0.21828 -0.269846,-0.39687 -0.197086,-0.39687 0.07276,0 0.280512,0.17859 0.461669,0.39687 0.181157,0.21828 0.269846,0.39688 0.197085,0.39688 -0.07276,0 -0.280511,-0.1786 -0.461668,-0.39688 z M 84.952946,152.7848 c 0.341775,-0.3638 0.680939,-0.66146 0.7537,-0.66146 0.07276,0 -0.147341,0.29766 -0.489117,0.66146 -0.341775,0.3638 -0.68094,0.66146 -0.7537,0.66146 -0.07276,0 0.147341,-0.29766 0.489117,-0.66146 z m -114.564591,-1.32292 c -0.181157,-0.21828 -0.269845,-0.39687 -0.197085,-0.39687 0.07276,0 0.280512,0.17859 0.461669,0.39687 0.181157,0.21829 0.269845,0.39688 0.197085,0.39688 -0.07276,0 -0.280511,-0.17859 -0.461669,-0.39688 z m 116.416674,-0.76135 c 0,-0.0549 0.20836,-0.2633 0.463021,-0.46302 0.419645,-0.32911 0.429003,-0.31975 0.0999,0.0999 -0.345644,0.44073 -0.562917,0.58089 -0.562917,0.36313 z m -100.490092,-4.00115 c 0.0054,-0.43656 0.06469,-0.58312 0.131773,-0.32569 0.06708,0.25743 0.06267,0.61462 -0.0098,0.79375 -0.07248,0.17913 -0.127362,-0.0315 -0.12197,-0.46806 z m 3.439584,0 c 0.0054,-0.43656 0.06469,-0.58312 0.131773,-0.32569 0.06708,0.25743 0.06267,0.61462 -0.0098,0.79375 -0.07248,0.17913 -0.127363,-0.0315 -0.121971,-0.46806 z m 74.602699,-3.30729 c 0,-0.3638 0.06006,-0.51263 0.133453,-0.33073 0.0734,0.1819 0.0734,0.47956 0,0.66146 -0.0734,0.1819 -0.133453,0.0331 -0.133453,-0.33073 z m -41.316778,-1.98437 c 0.341776,-0.36381 0.68094,-0.66146 0.7537,-0.66146 0.07276,0 -0.147341,0.29765 -0.489117,0.66146 -0.341775,0.3638 -0.680939,0.66145 -0.7537,0.66145 -0.07276,0 0.147341,-0.29765 0.489117,-0.66145 z m 10.034141,-0.0661 -0.641432,-0.7276 0.727604,0.64143 c 0.680056,0.59952 0.84894,0.81377 0.641432,0.81377 -0.04739,0 -0.374814,-0.32742 -0.727604,-0.7276 z m -19.823725,-0.7276 c -0.181157,-0.21828 -0.269846,-0.39688 -0.197085,-0.39688 0.07276,0 0.280511,0.1786 0.461668,0.39688 0.181158,0.21828 0.269846,0.39687 0.197086,0.39687 -0.07276,0 -0.280511,-0.17859 -0.461669,-0.39687 z m -8.9958338,-0.23219 c 0,-0.0549 0.2083594,-0.2633 0.4630209,-0.46302 0.419645,-0.32911 0.4290033,-0.31975 0.099896,0.0999 -0.3456438,0.44073 -0.562917,0.58089 -0.562917,0.36313 z M 9.3518917,139.499 c 0.4021826,-0.0608 0.9974953,-0.0592 1.3229163,0.004 0.325422,0.0628 -0.0036,0.11256 -0.7312418,0.11058 -0.7276042,-0.002 -0.9938571,-0.0534 -0.5916745,-0.11419 z m 50.0062533,0 c 0.402182,-0.0608 0.997495,-0.0592 1.322916,0.004 0.325422,0.0628 -0.0037,0.11256 -0.731242,0.11058 -0.727604,-0.002 -0.993857,-0.0534 -0.591674,-0.11419 z m 6.122787,-1.46378 -0.504029,-0.59531 0.595312,0.50402 c 0.559446,0.47367 0.715762,0.6866 0.504029,0.6866 -0.05021,0 -0.318098,-0.26789 -0.595312,-0.59531 z m -43.920836,-10.31875 -0.504029,-0.59531 0.595312,0.50402 c 0.559446,0.47367 0.715762,0.6866 0.504029,0.6866 -0.05021,0 -0.318098,-0.26789 -0.595312,-0.59531 z M 1.9584593,112.96595 c 0,-0.94589 0.048022,-1.33284 0.1067144,-0.8599 0.05869,0.47294 0.05869,1.24685 0,1.71979 -0.058693,0.47295 -0.1067144,0.086 -0.1067144,-0.85989 z m -11.0648942,-0.26459 c 0.26339,-0.29104 0.5384218,-0.52916 0.6111822,-0.52916 0.07276,0 -0.083209,0.23812 -0.3465989,0.52916 -0.2633901,0.29104 -0.5384218,0.52917 -0.6111822,0.52917 -0.07276,0 0.083209,-0.23813 0.3465989,-0.52917 z M 104.553,112.01786 c 0.0127,-0.30823 0.0754,-0.37092 0.15985,-0.15986 0.0764,0.191 0.067,0.4192 -0.0209,0.50712 -0.0879,0.0879 -0.15046,-0.0684 -0.13897,-0.34726 z m 5.55625,-0.79375 c 0.0127,-0.30823 0.0754,-0.37092 0.15985,-0.15986 0.0764,0.191 0.067,0.4192 -0.0209,0.50712 -0.0879,0.0879 -0.15045,-0.0683 -0.13897,-0.34726 z m -158.220841,-0.26459 c 0.01269,-0.30822 0.07539,-0.37092 0.159853,-0.15985 0.07643,0.191 0.06703,0.4192 -0.02089,0.50712 -0.08792,0.0879 -0.150453,-0.0684 -0.138965,-0.34727 z m -5.55625,-0.79375 c 0.0127,-0.30822 0.07539,-0.37092 0.159852,-0.15985 0.07643,0.19099 0.06703,0.4192 -0.02089,0.50712 -0.08792,0.0879 -0.150453,-0.0684 -0.138964,-0.34727 z M 110.39472,108.9972 c 0,-0.36381 0.0601,-0.51263 0.13346,-0.33073 0.0734,0.1819 0.0734,0.47955 0,0.66146 -0.0734,0.1819 -0.13346,0.0331 -0.13346,-0.33073 z m -158.770894,-0.15434 c 0.01269,-0.30823 0.07539,-0.37092 0.159852,-0.15986 0.07643,0.191 0.06703,0.4192 -0.02089,0.50712 -0.08792,0.0879 -0.150453,-0.0683 -0.138964,-0.34726 z m -5.535362,-1.43316 c 0,-0.36381 0.06005,-0.51263 0.133452,-0.33073 0.0734,0.1819 0.0734,0.47955 0,0.66146 -0.0734,0.1819 -0.133452,0.0331 -0.133452,-0.33073 z m 158.993706,0.11024 c 0.0127,-0.30823 0.0754,-0.37092 0.15985,-0.15985 0.0764,0.19099 0.067,0.4192 -0.0209,0.50712 -0.0879,0.0879 -0.15045,-0.0684 -0.13896,-0.34727 z m -121.993814,-1.00389 c 0,-0.0549 0.20836,-0.2633 0.463021,-0.46302 0.419645,-0.32911 0.429004,-0.31975 0.0999,0.0999 -0.345644,0.44072 -0.562917,0.58088 -0.562917,0.36312 z m -31.698421,-0.82615 c 0.0054,-0.43656 0.06469,-0.58312 0.131773,-0.32569 0.06708,0.25743 0.06267,0.61462 -0.0098,0.79375 -0.07248,0.17913 -0.127363,-0.0315 -0.12197,-0.46806 z m 159.279175,0 c 0.005,-0.43656 0.0647,-0.58312 0.13177,-0.32569 0.0671,0.25743 0.0627,0.61462 -0.01,0.79375 -0.0725,0.17913 -0.12736,-0.0315 -0.12197,-0.46806 z m -42.806928,-1.25677 -0.504029,-0.59531 0.595313,0.50403 c 0.559445,0.47366 0.715761,0.6866 0.504028,0.6866 -0.05021,0 -0.318098,-0.26789 -0.595312,-0.59532 z m 37.548368,-1.52135 c 0,-0.94589 0.048,-1.33284 0.10671,-0.8599 0.0587,0.47295 0.0587,1.24685 0,1.7198 -0.0587,0.47294 -0.10671,0.086 -0.10671,-0.8599 z m -159.526486,-2.38125 c 0,-1.819012 0.04227,-2.563152 0.09394,-1.653647 0.05166,0.909505 0.05166,2.397787 0,3.307287 -0.05167,0.90951 -0.09394,0.16537 -0.09394,-1.65364 z m 40.908459,2.54594 c 0,-0.0549 0.20836,-0.2633 0.463021,-0.46302 0.419645,-0.32911 0.429003,-0.31975 0.0999,0.0999 -0.345644,0.44073 -0.562917,0.58089 -0.562917,0.36313 z m 4.2333337,-0.82615 c 0.3417756,-0.3638 0.6809397,-0.66146 0.7537001,-0.66146 0.07276,0 -0.1473412,0.29766 -0.4891167,0.66146 -0.3417756,0.3638 -0.6809397,0.66146 -0.7537001,0.66146 -0.07276,0 0.1473412,-0.29766 0.4891167,-0.66146 z m 73.6613243,-0.7276 -0.504028,-0.59532 0.595312,0.50403 c 0.559446,0.47367 0.715762,0.6866 0.504029,0.6866 -0.05021,0 -0.318098,-0.26789 -0.595313,-0.59531 z M -9.7678933,99.901466 c 0,-0.05494 0.2083594,-0.2633 0.4630209,-0.463021 0.419645,-0.329107 0.4290033,-0.319749 0.099896,0.0999 -0.3456437,0.44073 -0.5629169,0.580885 -0.5629169,0.363125 z M 105.41055,98.413862 c 0,-0.945885 0.048,-1.332838 0.10671,-0.859896 0.0587,0.472943 0.0587,1.246849 0,1.719792 -0.0587,0.472943 -0.10671,0.08599 -0.10671,-0.859896 z M -5.402268,98.943029 c 0.26339,-0.291042 0.5384218,-0.529167 0.6111822,-0.529167 0.07276,0 -0.083209,0.238125 -0.3465989,0.529167 -0.2633901,0.291042 -0.5384218,0.529167 -0.6111822,0.529167 -0.07276,0 0.083209,-0.238125 0.3465989,-0.529167 z m 67.071879,-0.132292 c -0.181158,-0.218281 -0.269846,-0.396875 -0.197085,-0.396875 0.07276,0 0.280511,0.178594 0.461668,0.396875 0.181158,0.218281 0.269846,0.396875 0.197086,0.396875 -0.07276,0 -0.280511,-0.178594 -0.461669,-0.396875 z M -6.3283098,96.726466 c 0,-0.05494 0.2083594,-0.2633 0.4630209,-0.463021 0.4196451,-0.329107 0.4290034,-0.319749 0.099896,0.0999 -0.3456438,0.44073 -0.562917,0.580888 -0.562917,0.363125 z M 62.198778,96.164904 c -0.181158,-0.218282 -0.269846,-0.396875 -0.197086,-0.396875 0.07276,0 0.280511,0.178593 0.461669,0.396875 0.181158,0.218281 0.269846,0.396875 0.197086,0.396875 -0.07276,0 -0.280512,-0.178594 -0.461669,-0.396875 z M -1.9626845,95.768029 c 0.2633901,-0.291042 0.5384218,-0.529167 0.6111822,-0.529167 0.072761,0 -0.083209,0.238125 -0.3465989,0.529167 -0.26339,0.291041 -0.5384218,0.529166 -0.6111822,0.529166 -0.07276,0 0.083209,-0.238125 0.3465989,-0.529166 z m 60.2998655,-0.06615 -0.504029,-0.595313 0.595313,0.504029 c 0.559446,0.473662 0.715761,0.686596 0.504029,0.686596 -0.05021,0 -0.318098,-0.26789 -0.595313,-0.595312 z M -48.610065,95.371154 c 0.0054,-0.436563 0.06469,-0.583126 0.131773,-0.325694 0.06708,0.257431 0.06267,0.614619 -0.0098,0.79375 -0.07248,0.17913 -0.127363,-0.03149 -0.12197,-0.468056 z m 159.279175,0 c 0.005,-0.436563 0.0647,-0.583126 0.13177,-0.325694 0.0671,0.257431 0.0627,0.614619 -0.01,0.79375 -0.0725,0.17913 -0.12736,-0.03149 -0.12197,-0.468056 z M -53.911536,93.651362 c 0,-0.363802 0.06005,-0.51263 0.133452,-0.330729 0.0734,0.181901 0.0734,0.479557 0,0.661458 -0.0734,0.181901 -0.133452,0.03307 -0.133452,-0.330729 z m 159.014596,0 c 0,-0.363802 0.0601,-0.51263 0.13345,-0.330729 0.0734,0.181901 0.0734,0.479557 0,0.661458 -0.0734,0.181901 -0.13345,0.03307 -0.13345,-0.330729 z M 58.759194,92.989904 c -0.181157,-0.218282 -0.269846,-0.396875 -0.197085,-0.396875 0.07276,0 0.280511,0.178593 0.461669,0.396875 0.181157,0.218281 0.269845,0.396875 0.197085,0.396875 -0.07276,0 -0.280511,-0.178594 -0.461669,-0.396875 z M 1.4118539,92.703272 c 0.2552647,-0.30317 0.6422178,-0.551217 0.8598959,-0.551217 0.2176753,0 0.3461649,0.04961 0.2855304,0.110244 -0.060632,0.06064 -0.1671955,0.07056 -0.2368048,0.02204 -0.069609,-0.0485 -0.406953,0.14994 -0.7496519,0.440981 l -0.62309116,0.529167 z m 53.4857441,-0.176389 -0.504029,-0.595313 0.595312,0.504029 c 0.559446,0.473662 0.715762,0.686596 0.504029,0.686596 -0.05021,0 -0.318098,-0.26789 -0.595312,-0.595312 z M -48.376174,92.174106 c 0.01269,-0.308227 0.07539,-0.37092 0.159852,-0.159854 0.07643,0.190995 0.06703,0.419201 -0.02089,0.507119 -0.08792,0.08792 -0.150453,-0.06835 -0.138964,-0.347265 z m 158.750014,0 c 0.0127,-0.308227 0.0754,-0.37092 0.15985,-0.159854 0.0764,0.190995 0.067,0.419201 -0.0209,0.507119 -0.0879,0.08792 -0.15045,-0.06835 -0.13896,-0.347265 z m -72.401084,-1.234723 -0.777105,-0.859896 0.859896,0.777105 c 0.801545,0.724371 0.981512,0.942686 0.777105,0.942686 -0.04554,0 -0.432488,-0.386953 -0.859896,-0.859895 z m -91.640597,0.176389 c 0.0127,-0.308226 0.07539,-0.370919 0.159852,-0.159853 0.07643,0.190995 0.06703,0.419201 -0.02089,0.507119 -0.08792,0.08792 -0.150453,-0.06835 -0.138964,-0.347266 z m 158.485431,0 c 0.0127,-0.308226 0.0754,-0.370919 0.15985,-0.159853 0.0764,0.190995 0.067,0.419201 -0.0209,0.507119 -0.0879,0.08792 -0.15045,-0.06835 -0.13896,-0.347266 z m -80.718815,-0.21014 c 0,-0.05494 0.20836,-0.2633 0.463021,-0.463021 0.419645,-0.329107 0.429004,-0.319749 0.0999,0.0999 -0.345643,0.440729 -0.562917,0.580887 -0.562917,0.363124 z M 0.28627397,90.641049 c 0,-0.05494 0.20835939,-0.2633 0.46302086,-0.463021 0.41964507,-0.329107 0.42900337,-0.319749 0.0998961,0.0999 -0.34564375,0.44073 -0.56291695,0.580888 -0.56291695,0.363125 z M 4.3432178,90.345171 c 0,-0.217678 0.2480469,-0.604631 0.5512171,-0.859896 0.5393372,-0.454123 0.5416444,-0.452721 0.1070477,0.06504 -0.2442924,0.291042 -0.4427299,0.628385 -0.4409731,0.749652 0.00185,0.121269 -0.046413,0.270097 -0.1070478,0.330729 -0.060634,0.06064 -0.1102439,-0.06786 -0.1102439,-0.28553 z m 23.3022952,-0.199538 -0.504029,-0.595313 0.595312,0.504029 c 0.559446,0.473662 0.715762,0.686596 0.504029,0.686596 -0.05021,0 -0.318098,-0.267891 -0.595312,-0.595312 z M 48.17586,90.34407 c -0.181157,-0.218281 -0.269846,-0.396875 -0.197085,-0.396875 0.07276,0 0.280511,0.178594 0.461669,0.396875 0.181157,0.218281 0.269845,0.396875 0.197085,0.396875 -0.07276,0 -0.280511,-0.178594 -0.461669,-0.396875 z m 7.143751,-0.529167 c -0.181158,-0.218281 -0.269846,-0.396875 -0.197086,-0.396875 0.07276,0 0.280511,0.178594 0.461669,0.396875 0.181158,0.218282 0.269846,0.396875 0.197085,0.396875 -0.07276,0 -0.280511,-0.178593 -0.461668,-0.396875 z m 54.789639,-0.02204 c 0.0127,-0.308227 0.0754,-0.37092 0.15985,-0.159854 0.0764,0.190995 0.067,0.419201 -0.0209,0.507119 -0.0879,0.08792 -0.15045,-0.06835 -0.13897,-0.347265 z m -58.651236,-0.440982 -0.504029,-0.595312 0.595313,0.504029 c 0.327422,0.277214 0.595312,0.545105 0.595312,0.595312 0,0.211733 -0.212934,0.05542 -0.686596,-0.504029 z m -28.946739,0.230834 c 0,-0.05494 0.20836,-0.263301 0.463021,-0.463021 0.419645,-0.329108 0.429004,-0.319749 0.0999,0.0999 -0.345643,0.44073 -0.562917,0.580887 -0.562917,0.363125 z m -75.914533,-0.58361 c 0.0127,-0.308227 0.07539,-0.37092 0.159853,-0.159854 0.07643,0.190995 0.06703,0.419201 -0.02089,0.507119 -0.08792,0.08792 -0.150453,-0.06835 -0.138965,-0.347265 z M 3.4612742,87.730632 c 0,-0.05494 0.2083593,-0.2633 0.4630208,-0.463021 0.4196451,-0.329107 0.4290034,-0.319749 0.099896,0.0999 -0.3456437,0.44073 -0.5629169,0.580888 -0.5629169,0.363125 z M 19.865442,87.466049 c 0,-0.05494 0.208359,-0.2633 0.463021,-0.463021 0.419645,-0.329107 0.429003,-0.319749 0.0999,0.0999 -0.345644,0.44073 -0.562917,0.580887 -0.562917,0.363125 z M 7.4300244,87.201465 c 0,-0.05494 0.2083594,-0.2633 0.4630209,-0.46302 0.419645,-0.329108 0.4290033,-0.319749 0.099896,0.0999 -0.3456438,0.440729 -0.562917,0.580887 -0.562917,0.363124 z m 28.6821556,-0.759999 -0.504029,-0.595313 0.595313,0.504029 c 0.327422,0.277214 0.595312,0.545105 0.595312,0.595312 0,0.211733 -0.212934,0.05542 -0.686596,-0.504028 z m 15.767847,0.198437 c -0.181157,-0.218281 -0.269846,-0.396875 -0.197085,-0.396875 0.07276,0 0.280511,0.178594 0.461668,0.396875 0.181158,0.218281 0.269846,0.396875 0.197086,0.396875 -0.07276,0 -0.280511,-0.178594 -0.461669,-0.396875 z m -4.905672,-0.149894 c -0.09592,-0.155202 -0.117654,-0.338932 -0.0483,-0.408287 0.06935,-0.06936 0.196601,0.05763 0.282773,0.282186 0.178906,0.466225 0.02643,0.548233 -0.234473,0.126101 z M 21.982109,85.613965 c 0,-0.05494 0.208359,-0.2633 0.46302,-0.463021 0.419646,-0.329107 0.429004,-0.319748 0.0999,0.0999 -0.345644,0.440729 -0.562917,0.580887 -0.562917,0.363124 z m -11.509376,-1.22302 c 0.26339,-0.291042 0.538422,-0.529167 0.611182,-0.529167 0.07276,0 -0.08321,0.238125 -0.346599,0.529167 -0.26339,0.291041 -0.538422,0.529166 -0.611182,0.529166 -0.07276,0 0.08321,-0.238125 0.346599,-0.529166 z m 27.64896,-0.132292 c -0.181158,-0.218281 -0.269846,-0.396875 -0.197086,-0.396875 0.07276,0 0.280512,0.178594 0.461669,0.396875 0.181158,0.218281 0.269846,0.396875 0.197086,0.396875 -0.07276,0 -0.280512,-0.178594 -0.461669,-0.396875 z M 24.760234,83.068028 c 0.26339,-0.291042 0.538422,-0.529167 0.611182,-0.529167 0.07276,0 -0.08321,0.238125 -0.346599,0.529167 -0.26339,0.291042 -0.538422,0.529167 -0.611182,0.529167 -0.07276,0 0.08321,-0.238125 0.346599,-0.529167 z m -9.128126,-0.132292 c -0.181157,-0.218281 -0.269846,-0.396875 -0.197085,-0.396875 0.07276,0 0.280511,0.178594 0.461669,0.396875 0.181157,0.218282 0.269845,0.396875 0.197085,0.396875 -0.07276,0 -0.280511,-0.178593 -0.461669,-0.396875 z m 4.497917,0.296979 c 0,-0.05494 0.20836,-0.2633 0.463021,-0.463021 0.419645,-0.329107 0.429003,-0.319749 0.0999,0.0999 -0.345644,0.44073 -0.562917,0.580888 -0.562917,0.363125 z M 40.23836,82.671153 c -0.181158,-0.218281 -0.269846,-0.396875 -0.197086,-0.396875 0.07276,0 0.280511,0.178594 0.461669,0.396875 0.181158,0.218281 0.269846,0.396875 0.197086,0.396875 -0.07276,0 -0.280512,-0.178594 -0.461669,-0.396875 z M 9.2821078,82.438965 c 0,-0.05494 0.2083594,-0.2633 0.4630209,-0.463021 0.4196453,-0.329107 0.4290033,-0.319749 0.099896,0.0999 -0.3456438,0.44073 -0.562917,0.580888 -0.562917,0.363125 z m 3.7041672,-0.264583 c 0,-0.05494 0.208359,-0.2633 0.463021,-0.463021 0.419645,-0.329107 0.429003,-0.319749 0.0999,0.0999 -0.345644,0.44073 -0.562917,0.580887 -0.562917,0.363125 z m 22.067571,-0.76 -0.504028,-0.595313 0.595312,0.504029 c 0.327422,0.277215 0.595313,0.545105 0.595313,0.595313 0,0.211732 -0.212934,0.05542 -0.686597,-0.504029 z M 22.775859,80.851465 c 0,-0.05494 0.208359,-0.2633 0.463021,-0.463021 0.419645,-0.329107 0.429003,-0.319749 0.0999,0.0999 -0.345644,0.44073 -0.562917,0.580888 -0.562917,0.363125 z m 5.423958,-0.958437 c 0.26339,-0.291042 0.538422,-0.529167 0.611183,-0.529167 0.07276,0 -0.08321,0.238125 -0.346599,0.529167 -0.26339,0.291041 -0.538422,0.529166 -0.611183,0.529166 -0.07276,0 0.08321,-0.238125 0.346599,-0.529166 z m 7.526383,-1.521355 -0.911799,-0.992187 0.992188,0.911799 c 0.545703,0.501489 0.992187,0.947973 0.992187,0.992188 0,0.202041 -0.223896,0.01172 -1.072576,-0.9118 z m -10.304508,0.09854 c 0,-0.05494 0.20836,-0.2633 0.463021,-0.463021 0.419645,-0.329107 0.429003,-0.319749 0.0999,0.0999 -0.345644,0.44073 -0.562917,0.580888 -0.562917,0.363125 z m 3.042709,-2.810521 c 0.26339,-0.291042 0.538421,-0.529167 0.611182,-0.529167 0.07276,0 -0.08321,0.238125 -0.346599,0.529167 -0.26339,0.291042 -0.538422,0.529167 -0.611182,0.529167 -0.07276,0 0.08321,-0.238125 0.346599,-0.529167 z m 1.190625,0.164687 c 0,-0.05494 0.208359,-0.2633 0.463021,-0.46302 0.419645,-0.329108 0.429003,-0.319749 0.0999,0.0999 -0.345644,0.440729 -0.562917,0.580887 -0.562917,0.363124 z m 5.663404,-1.024583 -0.504029,-0.595312 0.595313,0.504028 c 0.327421,0.277215 0.595312,0.545106 0.595312,0.595313 0,0.211733 -0.212934,0.05542 -0.686596,-0.504029 z m -4.075904,-0.595312 c -0.181158,-0.218282 -0.269846,-0.396875 -0.197086,-0.396875 0.07276,0 0.280512,0.178593 0.461669,0.396875 0.181158,0.218281 0.269846,0.396875 0.197086,0.396875 -0.07276,0 -0.280512,-0.178594 -0.461669,-0.396875 z m -3.439584,-1.025938 c 0,-0.05494 0.20836,-0.2633 0.463021,-0.463021 0.419645,-0.329107 0.429004,-0.319749 0.0999,0.0999 -0.345643,0.44073 -0.562917,0.580888 -0.562917,0.363125 z M 47.733514,65.20865 c -0.0011,-1.018646 0.04569,-1.467787 0.104137,-0.998088 0.05845,0.469696 0.05941,1.303134 0.0021,1.852084 -0.05728,0.548946 -0.105098,0.16465 -0.106273,-0.853996 z M -31.199145,51.482713 c 0,-0.05494 0.20836,-0.2633 0.463021,-0.463021 0.419644,-0.329107 0.429003,-0.319749 0.0999,0.0999 -0.345643,0.440729 -0.562916,0.580887 -0.562916,0.363124 z M 86.805029,50.391984 c -0.181157,-0.218281 -0.269846,-0.396875 -0.197085,-0.396875 0.07276,0 0.280511,0.178594 0.461669,0.396875 0.181157,0.218282 0.269845,0.396875 0.197085,0.396875 -0.07276,0 -0.280511,-0.178593 -0.461669,-0.396875 z M -29.214769,49.201359 c 0.263389,-0.291041 0.53842,-0.529166 0.61118,-0.529166 0.07276,0 -0.08321,0.238125 -0.346597,0.529166 -0.263389,0.291042 -0.538421,0.529167 -0.611181,0.529167 -0.07276,0 0.08321,-0.238125 0.346598,-0.529167 z m 111.918756,-3.175 c -1.30362,-1.309688 -2.310685,-2.38125 -2.237925,-2.38125 0.07276,0 1.198888,1.071562 2.502509,2.38125 1.30362,1.309688 2.310685,2.38125 2.237925,2.38125 -0.07276,0 -1.198888,-1.071562 -2.502509,-2.38125 z m 9.128126,1.984375 c -0.181158,-0.218281 -0.269846,-0.396875 -0.197086,-0.396875 0.07276,0 0.280512,0.178594 0.461669,0.396875 0.181158,0.218281 0.269846,0.396875 0.197086,0.396875 -0.07276,0 -0.280512,-0.178594 -0.461669,-0.396875 z M -34.903311,47.513963 c 0,-0.05494 0.208359,-0.2633 0.46302,-0.463021 0.419644,-0.329107 0.429003,-0.319749 0.0999,0.0999 -0.345643,0.44073 -0.562915,0.580888 -0.562915,0.363125 z m 125.255077,-1.289166 -0.504028,-0.595313 0.595312,0.504029 c 0.327422,0.277214 0.595313,0.545105 0.595313,0.595312 0,0.211733 -0.212934,0.05542 -0.686597,-0.504028 z M -32.522061,44.835734 c 0.341774,-0.363802 0.680939,-0.661458 0.753699,-0.661458 0.07276,0 -0.147342,0.297656 -0.489116,0.661458 -0.341774,0.363802 -0.680939,0.661458 -0.7537,0.661458 -0.07276,0 0.147342,-0.297656 0.489117,-0.661458 z M 86.664456,42.256046 85.085237,40.6024 l 1.653646,1.579218 c 0.909506,0.86857 1.653646,1.612711 1.653646,1.653646 0,0.195501 -0.261114,-0.04312 -1.728073,-1.579218 z m -109.793808,0.859896 c 0.26339,-0.291041 0.538421,-0.529167 0.611182,-0.529167 0.07276,0 -0.08321,0.238126 -0.346599,0.529167 -0.26339,0.291042 -0.538422,0.529167 -0.611182,0.529167 -0.07276,0 0.08321,-0.238125 0.346599,-0.529167 z M 78.602945,42.1899 c -0.181157,-0.218281 -0.269846,-0.396875 -0.197085,-0.396875 0.07276,0 0.280511,0.178594 0.461669,0.396875 0.181157,0.218282 0.269846,0.396875 0.197085,0.396875 -0.07276,0 -0.280511,-0.178593 -0.461669,-0.396875 z M -21.409561,41.693131 c 0,-0.05494 0.20836,-0.263302 0.463021,-0.463021 0.419645,-0.329108 0.429004,-0.319749 0.0999,0.09989 -0.345643,0.440729 -0.562917,0.580887 -0.562917,0.363126 z m -6.085417,-1.884481 c 0.341776,-0.363802 0.68094,-0.661458 0.7537,-0.661458 0.07276,0 -0.147341,0.297656 -0.489116,0.661458 -0.341776,0.363802 -0.680939,0.661459 -0.7537,0.661459 -0.07276,0 0.147342,-0.297657 0.489116,-0.661459 z m 110.173827,-1.256771 -0.504028,-0.595312 0.595312,0.504028 c 0.327422,0.277215 0.595313,0.545106 0.595313,0.595313 0,0.211733 -0.212934,0.05542 -0.686597,-0.504029 z M 36.484583,23.8852 c 0.190995,-0.07643 0.419201,-0.06703 0.507119,0.02089 0.08792,0.08792 -0.06835,0.150453 -0.347265,0.138965 -0.308227,-0.0127 -0.37092,-0.07539 -0.159854,-0.159853 z M 22.704678,23.627808 c 0.179131,-0.07248 0.536318,-0.07689 0.79375,-0.0098 0.257432,0.06708 0.110868,0.126382 -0.325694,0.131773 -0.436563,0.0054 -0.647187,-0.04949 -0.468056,-0.121969 z m 10.456077,-0.0088 c 0.254662,-0.06655 0.67138,-0.06655 0.926042,0 0.254661,0.06655 0.0463,0.121 -0.463021,0.121 -0.509323,0 -0.717682,-0.05445 -0.463021,-0.121 z M 16.640832,18.858117 c 0.190995,-0.07643 0.419201,-0.06703 0.507119,0.02089 0.08792,0.08792 -0.06835,0.150453 -0.347265,0.138964 -0.308227,-0.0127 -0.37092,-0.07539 -0.159854,-0.159852 z m 2.116667,-0.264584 c 0.190995,-0.07643 0.419201,-0.06703 0.507119,0.02089 0.08792,0.08792 -0.06835,0.150452 -0.347266,0.138964 -0.308226,-0.0127 -0.370919,-0.07539 -0.159853,-0.159853 z m 19.050001,0 c 0.190995,-0.07643 0.419201,-0.06703 0.507119,0.02089 0.08792,0.08792 -0.06835,0.150452 -0.347265,0.138964 -0.308227,-0.0127 -0.37092,-0.07539 -0.159854,-0.159853 z M 21.386796,18.334462 c 0.181901,-0.0734 0.479557,-0.0734 0.661458,0 0.181902,0.0734 0.03307,0.133452 -0.330729,0.133452 -0.363802,0 -0.51263,-0.06005 -0.330729,-0.133452 z m 13.493751,0 c 0.181901,-0.0734 0.479557,-0.0734 0.661458,0 0.181901,0.0734 0.03307,0.133452 -0.330729,0.133452 -0.363802,0 -0.51263,-0.06005 -0.330729,-0.133452 z m -7.927132,-0.285521 c 0.915207,-0.05181 2.343958,-0.05138 3.175001,9.52e-4 0.83104,0.05234 0.08223,0.09473 -1.664015,0.09421 -1.74625,-5.23e-4 -2.426195,-0.04334 -1.510986,-0.09516 z"
           style="fill:#fefefe;stroke-width:0.26458335" />
        <path
           id="path6356"
           d="m 27.872726,182.89067 c 0.402183,-0.0608 0.997495,-0.0592 1.322917,0.004 0.325422,0.0628 -0.0037,0.11256 -0.731242,0.11058 -0.727605,-0.002 -0.993857,-0.0534 -0.591675,-0.11419 z m -5.961798,-0.24827 c 0.179131,-0.0725 0.536318,-0.0769 0.79375,-0.01 0.257431,0.0671 0.110868,0.12638 -0.325694,0.13178 -0.436563,0.005 -0.647187,-0.0495 -0.468056,-0.12197 z m 12.170834,0 c 0.179131,-0.0725 0.536318,-0.0769 0.79375,-0.01 0.257432,0.0671 0.110868,0.12638 -0.325694,0.13178 -0.436563,0.005 -0.647187,-0.0495 -0.468056,-0.12197 z m -14.795096,-0.27177 c 0.190995,-0.0764 0.4192,-0.067 0.507119,0.0209 0.08792,0.0879 -0.06835,0.15046 -0.347266,0.13897 -0.308226,-0.0127 -0.370919,-0.0754 -0.159853,-0.15985 z m 17.991668,0 c 0.190994,-0.0764 0.4192,-0.067 0.507118,0.0209 0.08792,0.0879 -0.06835,0.15046 -0.347265,0.13897 -0.308227,-0.0127 -0.37092,-0.0754 -0.159853,-0.15985 z M 39.395,182.10604 c 0.190995,-0.0764 0.419201,-0.067 0.507119,0.0209 0.08792,0.0879 -0.06835,0.15045 -0.347265,0.13896 -0.308227,-0.0127 -0.37092,-0.0754 -0.159854,-0.15985 z m -12.860404,-4.51311 c 0.9759,-0.0508 2.642775,-0.0511 3.704167,-7.9e-4 1.061392,0.0504 0.262929,0.0919 -1.774362,0.0923 -2.037292,5.3e-4 -2.905705,-0.0408 -1.929805,-0.0915 z m -5.131263,-0.24939 c 0.190994,-0.0764 0.4192,-0.067 0.507119,0.0209 0.08792,0.0879 -0.06835,0.15045 -0.347266,0.13896 -0.308227,-0.0127 -0.37092,-0.0754 -0.159853,-0.15985 z m 13.477214,0.006 c 0.181901,-0.0734 0.479557,-0.0734 0.661458,0 0.181901,0.0734 0.03307,0.13345 -0.330729,0.13345 -0.363802,0 -0.51263,-0.06 -0.330729,-0.13345 z m -16.123048,-0.2701 c 0.190995,-0.0764 0.419201,-0.067 0.507119,0.0209 0.08792,0.0879 -0.06835,0.15045 -0.347266,0.13896 -0.308226,-0.0127 -0.370919,-0.0754 -0.159853,-0.15985 z m 18.785418,0 c 0.190995,-0.0764 0.4192,-0.067 0.507119,0.0209 0.08792,0.0879 -0.06835,0.15045 -0.347266,0.13896 -0.308226,-0.0127 -0.370919,-0.0754 -0.159853,-0.15985 z m -20.637501,-0.26458 c 0.190994,-0.0764 0.4192,-0.067 0.507119,0.0209 0.08792,0.0879 -0.06835,0.15045 -0.347266,0.13896 -0.308226,-0.0127 -0.370919,-0.0754 -0.159853,-0.15985 z m 65.930863,-14.47123 c 0,-0.0549 0.208359,-0.2633 0.463021,-0.46302 0.419645,-0.32911 0.429003,-0.31975 0.0999,0.0999 -0.345644,0.44073 -0.562917,0.58089 -0.562917,0.36313 z m -111.269748,-2.08292 -1.045884,-1.12448 1.124479,1.04589 c 1.045756,0.97266 1.246064,1.20307 1.045885,1.20307 -0.04323,0 -0.549243,-0.50602 -1.12448,-1.12448 z m 105.713498,-0.0337 c 0,-0.0549 0.208359,-0.2633 0.46302,-0.46302 0.419646,-0.32911 0.429004,-0.31975 0.0999,0.0999 -0.345644,0.44072 -0.562917,0.58088 -0.562917,0.36312 z m -99.218756,-1.09073 c -0.181158,-0.21828 -0.269846,-0.39687 -0.197086,-0.39687 0.07276,0 0.280511,0.17859 0.461669,0.39687 0.181158,0.21828 0.269846,0.39688 0.197085,0.39688 -0.07276,0 -0.280511,-0.1786 -0.461668,-0.39688 z m 108.21459,0.0324 c 0,-0.0549 0.208359,-0.2633 0.46302,-0.46302 0.419645,-0.32911 0.429004,-0.31975 0.0999,0.0999 -0.345643,0.44073 -0.562916,0.58089 -0.562916,0.36313 z m -7.143751,-0.52917 c 0,-0.0549 0.208359,-0.2633 0.463021,-0.46302 0.419645,-0.32911 0.429003,-0.31975 0.0999,0.0999 -0.345644,0.44073 -0.562917,0.58089 -0.562917,0.36313 z m -110.874667,-1.68604 -0.911798,-0.99219 0.992188,0.9118 c 0.545703,0.50149 0.992187,0.94797 0.992187,0.99219 0,0.20204 -0.223895,0.0117 -1.072577,-0.9118 z m 7.013254,-0.39688 -1.045885,-1.12448 1.124479,1.04589 c 1.045755,0.97266 1.246064,1.20307 1.045885,1.20307 -0.04323,0 -0.549243,-0.50601 -1.124479,-1.12448 z m 30.1633615,-9.72343 c 0,-5.8936 0.034838,-8.30461 0.07742,-5.35782 0.042579,2.9468 0.042579,7.76883 0,10.71563 -0.042582,2.9468 -0.07742,0.53578 -0.07742,-5.35781 z m 53.1633515,7.27604 c 5.29e-4,-1.89177 0.04261,-2.63096 0.09365,-1.64264 0.05105,0.98831 0.05067,2.53612 -7.94e-4,3.43958 -0.05151,0.90345 -0.09327,0.0948 -0.09281,-1.79694 z m -6.717385,1.32291 c 0.341776,-0.3638 0.68094,-0.66145 0.7537,-0.66145 0.07276,0 -0.147341,0.29765 -0.489117,0.66145 -0.341775,0.36381 -0.680939,0.66146 -0.7537,0.66146 -0.07276,0 0.147342,-0.29765 0.489117,-0.66146 z m 30.691669,0.0324 c 0,-0.0549 0.208359,-0.2633 0.46302,-0.46302 0.419646,-0.32911 0.429004,-0.31975 0.0999,0.0999 -0.345644,0.44073 -0.562917,0.58089 -0.562917,0.36313 z m 7.14375,0 c 0,-0.0549 0.208359,-0.2633 0.463021,-0.46302 0.419645,-0.32911 0.429003,-0.31975 0.0999,0.0999 -0.345644,0.44073 -0.562917,0.58089 -0.562917,0.36313 z m -117.619748,-2.08292 -1.045884,-1.12448 1.124479,1.04589 c 1.045755,0.97266 1.246063,1.20307 1.045885,1.20307 -0.04323,0 -0.549243,-0.50601 -1.12448,-1.12448 z m 119.207248,0.23084 c 0,-0.0549 0.20836,-0.2633 0.463021,-0.46302 0.419645,-0.32911 0.429003,-0.31975 0.0999,0.0999 -0.345644,0.44073 -0.562917,0.58089 -0.562917,0.36313 z M 49.234194,153.3473 c 0,-0.0549 0.208359,-0.2633 0.46302,-0.46302 0.419646,-0.32911 0.429004,-0.31975 0.0999,0.0999 -0.345644,0.44073 -0.562917,0.58089 -0.562917,0.36312 z m 36.909377,-1.75218 c 0.26339,-0.29105 0.538422,-0.52917 0.611182,-0.52917 0.07276,0 -0.08321,0.23812 -0.346599,0.52917 -0.26339,0.29104 -0.538422,0.52916 -0.611182,0.52916 -0.07276,0 0.08321,-0.23812 0.346599,-0.52916 z m -32.030093,-7.80521 c 1.25e-4,-4.22011 0.03666,-5.90946 0.08118,-3.75413 0.04452,2.15533 0.04442,5.60815 -2.28e-4,7.67292 -0.04465,2.06477 -0.08108,0.30131 -0.08095,-3.91879 z m -84.518873,6.87916 c -0.181157,-0.21828 -0.269845,-0.39687 -0.197085,-0.39687 0.07276,0 0.280511,0.17859 0.461669,0.39687 0.181157,0.21828 0.269845,0.39688 0.197085,0.39688 -0.07276,0 -0.280511,-0.1786 -0.461669,-0.39688 z m 45.77292,-1.5551 c 0,-0.0549 0.208359,-0.2633 0.463021,-0.46302 0.419645,-0.32911 0.429003,-0.31975 0.0999,0.0999 -0.345644,0.44073 -0.562917,0.58089 -0.562917,0.36313 z m 43.233578,-5.72094 c 0,-2.25557 0.04058,-3.17831 0.09017,-2.05052 0.0496,1.12779 0.0496,2.97326 0,4.10104 -0.0496,1.12779 -0.09017,0.20505 -0.09017,-2.05052 z m -69.162746,-4.36562 c 0.341775,-0.36381 0.6809393,-0.66146 0.7536997,-0.66146 0.07276,0 -0.1473412,0.29765 -0.4891167,0.66146 -0.341776,0.3638 -0.68094,0.66145 -0.7537,0.66145 -0.07276,0 0.147341,-0.29765 0.489117,-0.66145 z m 7.3421876,0.22164 c 0.181901,-0.0734 0.4795573,-0.0734 0.6614584,0 0.181901,0.0734 0.033073,0.13346 -0.3307292,0.13346 -0.3638021,0 -0.5126303,-0.0601 -0.3307292,-0.13346 z m 30.9593374,-0.0119 c 0.329117,-0.0633 0.805367,-0.0609 1.058333,0.005 0.252965,0.0662 -0.01632,0.11801 -0.598398,0.11507 -0.582083,-0.003 -0.789053,-0.0571 -0.459935,-0.12041 z m -31.2289558,-3.426 c 0.1791309,-0.0725 0.5363184,-0.0769 0.7937501,-0.01 0.2574316,0.0671 0.1108683,0.12638 -0.3256942,0.13177 -0.4365625,0.005 -0.6471867,-0.0495 -0.4680559,-0.12197 z m 28.3185388,-3.18858 c 0.329118,-0.0633 0.805368,-0.0609 1.058333,0.005 0.252966,0.0662 -0.01632,0.11801 -0.598398,0.11507 -0.582083,-0.003 -0.789053,-0.0571 -0.459935,-0.12041 z m 10.502638,-10.79308 c 6.9e-5,-5.96636 0.03488,-8.3694 0.07736,-5.3401 0.04248,3.02931 0.04243,7.91087 -1.24e-4,10.84792 -0.04255,2.93705 -0.07731,0.45853 -0.07724,-5.50782 z m 25.916051,6.48229 c 0,-2.40109 0.04011,-3.38336 0.08914,-2.18281 0.04902,1.20054 0.04902,3.16508 0,4.36562 -0.04903,1.20055 -0.08914,0.21828 -0.08914,-2.18281 z M 7.5487959,123.41699 c 9.52e-5,-4.94771 0.035787,-6.93438 0.079314,-4.41483 0.043527,2.51955 0.043447,6.56767 -1.746e-4,8.99583 -0.043622,2.42816 -0.079235,0.36671 -0.079139,-4.581 z m -18.0032859,6.94531 -0.504028,-0.59531 0.595312,0.50403 c 0.327422,0.27721 0.5953127,0.5451 0.5953127,0.59531 0,0.21173 -0.212934,0.0554 -0.6865967,-0.50403 z m 11.40222234,0.0661 c 0.26339006,-0.29104 0.53842186,-0.52917 0.61118226,-0.52917 0.07276,0 -0.083209,0.23813 -0.3465989,0.52917 -0.26339009,0.29104 -0.53842183,0.52916 -0.61118225,0.52916 -0.0727604,0 0.0832088,-0.23812 0.34659889,-0.52916 z M 19.071692,130.29616 c -0.181158,-0.21829 -0.269846,-0.39688 -0.197086,-0.39688 0.07276,0 0.280512,0.17859 0.461669,0.39688 0.181158,0.21828 0.269846,0.39687 0.197086,0.39687 -0.07276,0 -0.280512,-0.17859 -0.461669,-0.39687 z m 11.90625,0.29697 c 0,-0.0549 0.20836,-0.2633 0.463021,-0.46302 0.419645,-0.3291 0.429004,-0.31975 0.0999,0.0999 -0.345643,0.44073 -0.562917,0.58089 -0.562917,0.36312 z m -6.156597,-1.39657 c 0.17913,-0.0725 0.536318,-0.0769 0.79375,-0.01 0.257431,0.0671 0.110868,0.12638 -0.325695,0.13177 -0.436562,0.005 -0.647186,-0.0495 -0.468055,-0.12197 z m -4.310666,-10.93895 c 0,-4.00182 0.03677,-5.63893 0.08172,-3.63802 0.04495,2.00091 0.04495,5.27513 0,7.27604 -0.04495,2.00092 -0.08172,0.36381 -0.08172,-3.63802 z m 26.393845,3.57188 c 0.0054,-0.43656 0.06469,-0.58313 0.131773,-0.3257 0.06708,0.25744 0.06267,0.61462 -0.0098,0.79375 -0.07248,0.17914 -0.127362,-0.0315 -0.12197,-0.46805 z m 0.32865,-7.34219 -0.777106,-0.8599 0.859896,0.77711 c 0.801545,0.72437 0.981512,0.94269 0.777105,0.94269 -0.04553,0 -0.432488,-0.38696 -0.859895,-0.8599 z m -100.371848,-1.14653 c 0.0127,-0.30822 0.07539,-0.37092 0.159852,-0.15985 0.07643,0.191 0.06703,0.4192 -0.02089,0.50712 -0.08792,0.0879 -0.150453,-0.0683 -0.138964,-0.34727 z m 52.63119792,-0.7717 c -0.18115757,-0.21828 -0.26984591,-0.39687 -0.19708549,-0.39687 0.0727604,0 0.28051127,0.17859 0.46166884,0.39687 0.18115757,0.21828 0.26984591,0.39688 0.19708549,0.39688 -0.07276042,0 -0.28051127,-0.1786 -0.46166884,-0.39688 z m 110.35214608,-0.022 c 0.0127,-0.30822 0.0754,-0.37092 0.15985,-0.15985 0.0764,0.19099 0.067,0.4192 -0.0209,0.50712 -0.0879,0.0879 -0.15045,-0.0684 -0.13896,-0.34727 z M -53.403258,111.4887 c 0.0127,-0.30823 0.07539,-0.37092 0.159853,-0.15986 0.07643,0.191 0.06703,0.41921 -0.02089,0.50712 -0.08792,0.0879 -0.150453,-0.0683 -0.138965,-0.34726 z M 39.395,111.19771 c 0.190995,-0.0764 0.419201,-0.067 0.507119,0.0209 0.08792,0.0879 -0.06835,0.15046 -0.347265,0.13897 -0.308227,-0.0127 -0.37092,-0.0754 -0.159854,-0.15985 z m 65.42259,-0.50277 c 0.0127,-0.30823 0.0754,-0.37092 0.15985,-0.15985 0.0764,0.19099 0.067,0.4192 -0.0209,0.50712 -0.0879,0.0879 -0.15045,-0.0684 -0.13896,-0.34727 z m 5.29166,-0.26458 c 0.0127,-0.30823 0.0754,-0.37092 0.15985,-0.15986 0.0764,0.191 0.067,0.4192 -0.0209,0.50712 -0.0879,0.0879 -0.15045,-0.0683 -0.13897,-0.34726 z m -158.485424,-0.79375 c 0.01269,-0.30823 0.07539,-0.37092 0.159852,-0.15986 0.07643,0.191 0.06703,0.4192 -0.02089,0.50712 -0.08792,0.0879 -0.150453,-0.0683 -0.138964,-0.34726 z m -5.291667,-0.26459 c 0.0127,-0.30822 0.07539,-0.37092 0.159852,-0.15985 0.07643,0.19099 0.06703,0.4192 -0.02089,0.50712 -0.08792,0.0879 -0.150453,-0.0683 -0.138964,-0.34727 z m 158.770901,-0.90399 c 0,-0.3638 0.0601,-0.51263 0.13345,-0.33073 0.0734,0.1819 0.0734,0.47956 0,0.66146 -0.0734,0.1819 -0.13345,0.0331 -0.13345,-0.33073 z m 5.27078,-0.41892 c 0.0127,-0.30823 0.0754,-0.37092 0.15985,-0.15986 0.0764,0.191 0.067,0.4192 -0.0209,0.50712 -0.0879,0.0879 -0.15045,-0.0684 -0.13896,-0.34726 z m -158.993709,-1.16858 c 0,-0.3638 0.06005,-0.51263 0.133452,-0.33073 0.0734,0.1819 0.0734,0.47956 0,0.66146 -0.0734,0.1819 -0.133452,0.0331 -0.133452,-0.33073 z m -5.281863,-0.66146 c 0.0054,-0.43656 0.06469,-0.58312 0.131773,-0.32569 0.06708,0.25743 0.06267,0.61462 -0.0098,0.79375 -0.07247,0.17913 -0.127362,-0.0315 -0.121969,-0.46806 z m 159.279172,-1.05833 c 0.005,-0.43656 0.0647,-0.58313 0.13178,-0.3257 0.0671,0.25744 0.0627,0.61462 -0.01,0.79375 -0.0725,0.17913 -0.12736,-0.0315 -0.12197,-0.46805 z m -86.618494,-0.0659 c 3.247732,-0.0421 8.486482,-0.0421 11.641668,1.1e-4 3.155188,0.0422 0.497953,0.0766 -5.904964,0.0766 -6.402917,-6e-5 -8.984433,-0.0346 -5.736704,-0.0767 z m -30.246631,-0.59553 c 0.26339,-0.29104 0.538422,-0.52917 0.611182,-0.52917 0.07276,0 -0.08321,0.23813 -0.346599,0.52917 -0.26339,0.29104 -0.538422,0.52917 -0.611182,0.52917 -0.07276,0 0.08321,-0.23813 0.346599,-0.52917 z m 122.177275,-0.52917 c 0,-0.65484 0.0516,-0.92273 0.11467,-0.59531 0.0631,0.32742 0.0631,0.8632 0,1.19063 -0.0631,0.32742 -0.11467,0.0595 -0.11467,-0.59532 z m -124.690817,-0.0999 c 0,-0.0549 0.208359,-0.2633 0.463021,-0.46302 0.419645,-0.32911 0.429003,-0.31975 0.0999,0.0999 -0.345644,0.44073 -0.562917,0.58089 -0.562917,0.36313 z m 80.805075,-0.49542 -0.504028,-0.59531 0.595312,0.50403 c 0.559446,0.47366 0.715762,0.68659 0.504029,0.68659 -0.05021,0 -0.318098,-0.26789 -0.595313,-0.59531 z m -115.633443,-2.71198 c -6.88e-4,-1.455208 0.04318,-2.084276 0.09748,-1.397931 0.0543,0.686345 0.05487,1.876971 0.0012,2.645831 -0.05361,0.76887 -0.09804,0.20731 -0.09873,-1.2479 z m 118.172123,2.11667 c -0.181157,-0.21828 -0.269846,-0.39688 -0.197085,-0.39688 0.07276,0 0.280511,0.1786 0.461669,0.39688 0.181157,0.21828 0.269845,0.39687 0.197085,0.39687 -0.07276,0 -0.280511,-0.17859 -0.461669,-0.39687 z M -7.7835182,101.0597 c 0.2633901,-0.29105 0.5384218,-0.52917 0.6111823,-0.52917 0.07276,0 -0.083209,0.23812 -0.3465989,0.52917 -0.2633901,0.29104 -0.5384219,0.52916 -0.6111823,0.52916 -0.07276,0 0.083209,-0.23812 0.3465989,-0.52916 z m 71.5697962,-0.39688 c -0.181158,-0.21828 -0.269846,-0.39687 -0.197086,-0.39687 0.07276,0 0.280512,0.17859 0.461669,0.39687 0.181158,0.21828 0.269846,0.39688 0.197086,0.39688 -0.07276,0 -0.280512,-0.1786 -0.461669,-0.39688 z m -74.347921,0.0324 c 0,-0.0549 0.208359,-0.2633 0.463021,-0.46302 0.4196446,-0.329112 0.4290029,-0.319754 0.099896,0.0999 -0.345644,0.44073 -0.562917,0.58089 -0.562917,0.36313 z m 76.836325,-0.760004 -0.504029,-0.595312 0.595312,0.504029 c 0.327422,0.277217 0.595313,0.545107 0.595313,0.595317 0,0.21173 -0.212934,0.0554 -0.686596,-0.504034 z m -70.6186166,-2.05052 c 0.26339,-0.291042 0.5384218,-0.529167 0.6111822,-0.529167 0.07276,0 -0.083209,0.238125 -0.3465989,0.529167 -0.2633901,0.291041 -0.5384218,0.529166 -0.6111822,0.529166 -0.072761,0 0.083209,-0.238125 0.3465989,-0.529166 z m 65.0623656,-0.06615 -0.504028,-0.595313 0.595312,0.504029 c 0.327422,0.277214 0.595313,0.545105 0.595313,0.595312 0,0.211733 -0.212934,0.05542 -0.686597,-0.504028 z M 110.6932,97.223237 c 0.002,-0.727604 0.0534,-0.993857 0.11419,-0.591674 0.0608,0.402182 0.0592,0.997495 -0.004,1.322916 -0.0628,0.325422 -0.11256,-0.0037 -0.11057,-0.731242 z M -7.1220598,97.520216 c 0,-0.05494 0.2083594,-0.2633 0.4630208,-0.463021 0.4196451,-0.329107 0.4290034,-0.319749 0.099896,0.0999 -0.3456437,0.44073 -0.5629169,0.580888 -0.5629169,0.363125 z M 62.992528,96.958654 c -0.181158,-0.218281 -0.269846,-0.396875 -0.197086,-0.396875 0.07276,0 0.280512,0.178594 0.461669,0.396875 0.181158,0.218281 0.269846,0.396875 0.197086,0.396875 -0.07276,0 -0.280512,-0.178594 -0.461669,-0.396875 z m 42.394722,-0.926042 c 0,-0.509323 0.0545,-0.717682 0.121,-0.463021 0.0665,0.254662 0.0665,0.67138 0,0.926042 -0.0666,0.254661 -0.121,0.0463 -0.121,-0.463021 z M -53.901732,94.841987 c 0.0054,-0.436563 0.06469,-0.583126 0.131773,-0.325694 0.06708,0.257431 0.06267,0.614619 -0.0098,0.79375 -0.07247,0.179131 -0.127362,-0.03149 -0.121969,-0.468056 z m 52.9973809,-0.132292 c 0.26339007,-0.291041 0.53842182,-0.529166 0.61118224,-0.529166 0.0727604,0 -0.0832088,0.238125 -0.34659889,0.529166 -0.26339008,0.291042 -0.53842185,0.529167 -0.61118225,0.529167 -0.07276,0 0.083209,-0.238125 0.3465989,-0.529167 z m 58.1831991,-0.06615 -0.504029,-0.595312 0.595313,0.504029 c 0.559445,0.473662 0.715761,0.686596 0.504028,0.686596 -0.05021,0 -0.318098,-0.267891 -0.595312,-0.595313 z m -105.898717,-0.46302 c 0,-0.363802 0.06005,-0.512631 0.133452,-0.33073 0.0734,0.181901 0.0734,0.479558 0,0.661459 -0.0734,0.181901 -0.133452,0.03307 -0.133452,-0.330729 z m 44.9373927,0.164687 c 0,-0.05494 0.2083594,-0.2633 0.4630209,-0.463021 0.4196451,-0.329107 0.4290034,-0.319749 0.099896,0.0999 -0.3456438,0.44073 -0.562917,0.580888 -0.562917,0.363125 z M 59.552944,93.783654 c -0.181157,-0.218282 -0.269846,-0.396875 -0.197085,-0.396875 0.07276,0 0.280511,0.178593 0.461669,0.396875 0.181157,0.218281 0.269845,0.396875 0.197085,0.396875 -0.07276,0 -0.280511,-0.178594 -0.461669,-0.396875 z m 50.841776,-0.661459 c 0,-0.363802 0.0601,-0.51263 0.13346,-0.330729 0.0734,0.181901 0.0734,0.479557 0,0.661458 -0.0734,0.181901 -0.13346,0.03307 -0.13346,-0.330729 z M 1.3446074,93.286882 c 0,-0.05494 0.2083594,-0.2633 0.4630208,-0.46302 0.4196451,-0.329108 0.4290034,-0.319749 0.099896,0.0999 -0.3456437,0.440729 -0.5629169,0.580887 -0.5629169,0.363124 z M 105.08217,92.703272 c 0.0127,-0.308226 0.0754,-0.370919 0.15985,-0.159853 0.0764,0.190995 0.067,0.419201 -0.0209,0.507119 -0.0879,0.08792 -0.15045,-0.06835 -0.13896,-0.347266 z m -158.750011,-0.79375 c 0.0127,-0.308226 0.07539,-0.370919 0.159852,-0.159853 0.07643,0.190995 0.06703,0.419201 -0.02089,0.507119 -0.08792,0.08792 -0.150453,-0.06835 -0.138964,-0.347266 z M 2.5352324,91.534695 c 0.2633901,-0.291042 0.5384219,-0.529167 0.6111823,-0.529167 0.07276,0 -0.083209,0.238125 -0.3465989,0.529167 -0.2633901,0.291042 -0.5384218,0.529167 -0.6111823,0.529167 -0.07276,0 0.083209,-0.238125 0.3465989,-0.529167 z m 51.3040316,-0.06615 -0.504028,-0.595312 0.595312,0.504028 c 0.559446,0.473663 0.715762,0.686597 0.504029,0.686597 -0.05021,0 -0.318098,-0.267891 -0.595313,-0.595313 z m -28.173015,-0.396875 -0.641432,-0.727604 0.727604,0.641432 c 0.680056,0.599517 0.84894,0.813776 0.641432,0.813776 -0.04739,0 -0.374814,-0.327421 -0.727604,-0.727604 z m -26.17372508,0.363125 c 0,-0.05494 0.20835939,-0.2633 0.46302086,-0.463021 0.41964507,-0.329107 0.42900338,-0.319749 0.09989609,0.0999 -0.34564375,0.44073 -0.56291695,0.580888 -0.56291695,0.363125 z M 56.113361,90.608653 c -0.181158,-0.218281 -0.269846,-0.396875 -0.197086,-0.396875 0.07276,0 0.280511,0.178594 0.461669,0.396875 0.181158,0.218282 0.269846,0.396875 0.197086,0.396875 -0.07276,0 -0.280512,-0.178593 -0.461669,-0.396875 z m 53.995889,-0.02204 c 0.0127,-0.308227 0.0754,-0.37092 0.15985,-0.159854 0.0764,0.190995 0.067,0.419201 -0.0209,0.507119 -0.0879,0.08792 -0.15045,-0.06835 -0.13897,-0.347265 z m -5.29166,-0.264584 c 0.0127,-0.308226 0.0754,-0.370919 0.15985,-0.159853 0.0764,0.190995 0.067,0.419201 -0.0209,0.507119 -0.0879,0.08792 -0.15045,-0.06835 -0.13896,-0.347266 z M 8.1027831,90.230061 c -0.083725,-0.135467 -0.051062,-0.308822 0.072578,-0.385236 0.1236424,-0.07641 0.2248032,0.03442 0.2248032,0.246301 0,0.446132 -0.083434,0.485111 -0.2973812,0.138935 z m 28.5385629,-0.613595 -0.504028,-0.595313 0.595312,0.504029 c 0.559446,0.473662 0.715762,0.686596 0.504029,0.686596 -0.05021,0 -0.318098,-0.26789 -0.595313,-0.595312 z m -84.752937,-0.08819 c 0.01269,-0.308226 0.07539,-0.370919 0.159853,-0.159853 0.07643,0.190995 0.06703,0.419201 -0.02089,0.507119 -0.08792,0.08792 -0.150453,-0.06835 -0.138965,-0.347266 z m 95.336271,-0.17639 -0.504028,-0.595312 0.595312,0.504029 c 0.559446,0.473662 0.715762,0.686596 0.504029,0.686596 -0.05021,0 -0.318098,-0.267891 -0.595313,-0.595313 z m 3.067847,0.198438 c -0.181158,-0.218281 -0.269846,-0.396875 -0.197085,-0.396875 0.07276,0 0.280511,0.178594 0.461668,0.396875 0.181158,0.218281 0.269846,0.396875 0.197086,0.396875 -0.07276,0 -0.280511,-0.178594 -0.461669,-0.396875 z M 5.7102326,88.624278 c 0.2633901,-0.291041 0.5384219,-0.529166 0.6111823,-0.529166 0.07276,0 -0.083209,0.238125 -0.3465989,0.529166 -0.2633901,0.291042 -0.5384218,0.529167 -0.6111823,0.529167 -0.07276,0 0.083209,-0.238125 0.3465989,-0.529167 z m 44.6894484,-0.330729 -0.504029,-0.595312 0.595313,0.504028 c 0.327421,0.277215 0.595312,0.545105 0.595312,0.595313 0,0.211733 -0.212934,0.05542 -0.686596,-0.504029 z M 2.6675241,88.524382 c 0,-0.05494 0.2083594,-0.2633 0.4630209,-0.463021 0.419645,-0.329107 0.4290034,-0.319749 0.099896,0.0999 -0.3456438,0.44073 -0.562917,0.580888 -0.562917,0.363125 z M 37.06336,87.433653 c -0.181158,-0.218281 -0.269846,-0.396875 -0.197086,-0.396875 0.07276,0 0.280511,0.178594 0.461669,0.396875 0.181157,0.218281 0.269846,0.396875 0.197085,0.396875 -0.07276,0 -0.280511,-0.178594 -0.461668,-0.396875 z m 15.610417,0 c -0.181157,-0.218281 -0.269846,-0.396875 -0.197085,-0.396875 0.07276,0 0.280511,0.178594 0.461668,0.396875 0.181158,0.218281 0.269846,0.396875 0.197086,0.396875 -0.07276,0 -0.280511,-0.178594 -0.461669,-0.396875 z M 8.6206495,85.978445 c 0.2633901,-0.291042 0.5384218,-0.529167 0.6111822,-0.529167 0.07276,0 -0.083209,0.238125 -0.3465989,0.529167 -0.2633901,0.291041 -0.5384218,0.529166 -0.6111822,0.529166 -0.07276,0 0.083209,-0.238125 0.3465989,-0.529166 z m 36.9093775,0 c 0,-0.145521 0.12609,-0.264584 0.280199,-0.264584 0.154109,0 0.206613,0.119063 0.116676,0.264584 -0.08994,0.145521 -0.216027,0.264583 -0.280199,0.264583 -0.06417,0 -0.116676,-0.119062 -0.116676,-0.264583 z M 5.8425243,85.613965 c 0,-0.05494 0.2083594,-0.2633 0.4630209,-0.463021 0.419645,-0.329107 0.4290033,-0.319748 0.099896,0.0999 -0.3456438,0.440729 -0.562917,0.580887 -0.562917,0.363124 z m 10.2987247,-0.892291 -0.641432,-0.727604 0.727604,0.641432 c 0.400182,0.35279 0.727604,0.680212 0.727604,0.727604 0,0.207507 -0.21426,0.03862 -0.813776,-0.641432 z m 6.63461,0.09854 c 0,-0.05494 0.208359,-0.2633 0.463021,-0.463021 0.419645,-0.329107 0.429003,-0.319749 0.0999,0.0999 -0.345644,0.440729 -0.562917,0.580887 -0.562917,0.363124 z m 26.722918,-0.296979 c -0.181158,-0.218281 -0.269846,-0.396875 -0.197086,-0.396875 0.07276,0 0.280512,0.178594 0.461669,0.396875 0.181158,0.218282 0.269846,0.396875 0.197086,0.396875 -0.07276,0 -0.280511,-0.178593 -0.461669,-0.396875 z M 41.82586,83.99407 c -0.181158,-0.218282 -0.269846,-0.396875 -0.197086,-0.396875 0.07276,0 0.280512,0.178593 0.461669,0.396875 0.181158,0.218281 0.269846,0.396875 0.197086,0.396875 -0.07276,0 -0.280512,-0.178594 -0.461669,-0.396875 z M 11.134191,83.761882 c 0,-0.05494 0.20836,-0.2633 0.463021,-0.463021 0.419645,-0.329107 0.429004,-0.319749 0.0999,0.0999 -0.345644,0.44073 -0.562917,0.580888 -0.562917,0.363125 z m 26.193752,-0.296979 c -0.181158,-0.218281 -0.269846,-0.396875 -0.197086,-0.396875 0.07276,0 0.280512,0.178594 0.461669,0.396875 0.181158,0.218281 0.269846,0.396875 0.197086,0.396875 -0.07276,0 -0.280512,-0.178594 -0.461669,-0.396875 z M 22.246692,82.703549 c 0,-0.05494 0.208359,-0.263301 0.463021,-0.463021 0.419645,-0.329108 0.429003,-0.319749 0.0999,0.0999 -0.345644,0.440729 -0.562917,0.580887 -0.562917,0.363125 z m -1.322917,-0.264584 c 0,-0.05494 0.20836,-0.2633 0.463021,-0.463021 0.419645,-0.329107 0.429003,-0.319749 0.0999,0.0999 -0.345644,0.44073 -0.562917,0.580888 -0.562917,0.363125 z m 4.894792,-0.42927 c 0.26339,-0.291042 0.538422,-0.529167 0.611182,-0.529167 0.07276,0 -0.08321,0.238125 -0.346598,0.529167 -0.263391,0.291041 -0.538422,0.529166 -0.611183,0.529166 -0.07276,0 0.08321,-0.238125 0.346599,-0.529166 z m 13.468613,-0.33073 -0.504029,-0.595312 0.595313,0.504028 c 0.327422,0.277215 0.595312,0.545106 0.595312,0.595313 0,0.211733 -0.212934,0.05542 -0.686596,-0.504029 z M 18.807108,81.380632 c 0,-0.05494 0.20836,-0.2633 0.463021,-0.463021 0.419645,-0.329107 0.429004,-0.319749 0.0999,0.0999 -0.345643,0.44073 -0.562917,0.580887 -0.562917,0.363125 z m 18.785418,-0.296979 c -0.181157,-0.218281 -0.269846,-0.396875 -0.197085,-0.396875 0.07276,0 0.280511,0.178594 0.461669,0.396875 0.181157,0.218281 0.269845,0.396875 0.197085,0.396875 -0.07276,0 -0.280511,-0.178594 -0.461669,-0.396875 z m -3.439583,-0.529167 c -0.181158,-0.218281 -0.269846,-0.396875 -0.197086,-0.396875 0.07276,0 0.280511,0.178594 0.461669,0.396875 0.181158,0.218281 0.269846,0.396875 0.197086,0.396875 -0.07276,0 -0.280512,-0.178594 -0.461669,-0.396875 z m 7.14375,0 c -0.181157,-0.218281 -0.269846,-0.396875 -0.197085,-0.396875 0.07276,0 0.280511,0.178594 0.461668,0.396875 0.181158,0.218281 0.269846,0.396875 0.197086,0.396875 -0.07276,0 -0.280511,-0.178594 -0.461669,-0.396875 z m -29.897918,0.0324 c 0,-0.05494 0.208359,-0.2633 0.463021,-0.463021 0.419645,-0.329107 0.429003,-0.319749 0.0999,0.0999 -0.345644,0.44073 -0.562917,0.580887 -0.562917,0.363125 z m 12.170834,-0.529167 c 0,-0.05494 0.208359,-0.2633 0.463021,-0.463021 0.419645,-0.329107 0.429003,-0.319749 0.0999,0.0999 -0.345644,0.44073 -0.562917,0.580888 -0.562917,0.363125 z m 1.984375,-0.429271 c 0.26339,-0.291041 0.538422,-0.529166 0.611182,-0.529166 0.07276,0 -0.08321,0.238125 -0.346599,0.529166 -0.26339,0.291042 -0.538422,0.529167 -0.611182,0.529167 -0.07276,0 0.08321,-0.238125 0.346599,-0.529167 z m 3.704167,-0.79375 c 0.26339,-0.291041 0.538422,-0.529166 0.611182,-0.529166 0.07276,0 -0.08321,0.238125 -0.346599,0.529166 -0.26339,0.291042 -0.538422,0.529167 -0.611182,0.529167 -0.07276,0 0.08321,-0.238125 0.346599,-0.529167 z m 5.159375,-0.661458 c -0.181158,-0.218281 -0.269846,-0.396875 -0.197085,-0.396875 0.07276,0 0.280511,0.178594 0.461668,0.396875 0.181158,0.218281 0.269846,0.396875 0.197086,0.396875 -0.07276,0 -0.280511,-0.178594 -0.461669,-0.396875 z m -8.202084,-0.496771 c 0,-0.05494 0.20836,-0.2633 0.463021,-0.463021 0.419645,-0.329107 0.429003,-0.319749 0.0999,0.0999 -0.345644,0.44073 -0.562917,0.580888 -0.562917,0.363125 z m 7.658675,-1.156875 -0.911799,-0.992188 0.992187,0.9118 c 0.545703,0.501488 0.992188,0.947973 0.992188,0.992187 0,0.202041 -0.223896,0.01172 -1.072576,-0.911799 z m -9.775342,0.09854 c 0,-0.05494 0.20836,-0.2633 0.463021,-0.46302 0.419645,-0.329108 0.429004,-0.319749 0.0999,0.0999 -0.345643,0.440729 -0.562917,0.580887 -0.562917,0.363124 z m 4.762501,0 c 0,-0.05494 0.208359,-0.2633 0.463021,-0.46302 0.419645,-0.329108 0.429003,-0.319749 0.0999,0.0999 -0.345644,0.440729 -0.562917,0.580887 -0.562917,0.363124 z m 7.652891,-0.627708 -0.641433,-0.727604 0.727605,0.641432 c 0.400182,0.35279 0.727604,0.680212 0.727604,0.727604 0,0.207508 -0.21426,0.03862 -0.813776,-0.641432 z m -6.859141,-1.521354 c 0.341775,-0.363802 0.680939,-0.661458 0.7537,-0.661458 0.07276,0 -0.147341,0.297656 -0.489117,0.661458 -0.341775,0.363802 -0.68094,0.661458 -0.7537,0.661458 -0.07276,0 0.147341,-0.297656 0.489117,-0.661458 z m -2.645834,-0.496771 c 0,-0.05494 0.20836,-0.2633 0.463021,-0.463021 0.419645,-0.329107 0.429003,-0.319749 0.0999,0.0999 -0.345644,0.44073 -0.562917,0.580888 -0.562917,0.363125 z m 5.556251,-1.619896 c -0.181158,-0.218281 -0.269846,-0.396875 -0.197086,-0.396875 0.07276,0 0.280511,0.178594 0.461669,0.396875 0.181158,0.218282 0.269846,0.396875 0.197085,0.396875 -0.07276,0 -0.280511,-0.178593 -0.461668,-0.396875 z M -7.7951069,56.080526 c 0,-5.893594 0.034838,-8.30461 0.07742,-5.357813 0.042579,2.946798 0.042579,7.768829 0,10.715626 -0.042582,2.946797 -0.07742,0.535781 -0.07742,-5.357813 z m 21.4311219,0.132292 c -7.2e-5,-5.820834 0.03479,-8.239779 0.07747,-5.375434 0.04268,2.864345 0.04274,7.626845 1.3e-4,10.583334 -0.04261,2.956489 -0.07753,0.612934 -0.07761,-5.2079 z m 2.910546,-0.132292 c 0,-5.893594 0.03484,-8.30461 0.07742,-5.357813 0.04258,2.946798 0.04258,7.768829 0,10.715626 -0.04258,2.946797 -0.07742,0.535781 -0.07742,-5.357813 z M -30.405395,50.42438 c 0,-0.05494 0.20836,-0.2633 0.463021,-0.463021 0.419644,-0.329107 0.429003,-0.319749 0.0999,0.0999 -0.345643,0.44073 -0.562916,0.580888 -0.562916,0.363125 z m 115.994661,-1.55375 -0.504029,-0.595312 0.595313,0.504028 c 0.327422,0.277215 0.595313,0.545105 0.595313,0.595313 0,0.211732 -0.212935,0.05542 -0.686597,-0.504029 z M -26.304353,46.026359 c 1.010841,-1.018646 1.897423,-1.852083 1.970183,-1.852083 0.07276,0 -0.694759,0.833437 -1.705599,1.852083 -1.010841,1.018646 -1.897423,1.852083 -1.970183,1.852083 -0.07276,0 0.694759,-0.833437 1.705599,-1.852083 z m -7.805208,0.693854 c 0,-0.05494 0.208359,-0.2633 0.46302,-0.463021 0.419644,-0.329107 0.429003,-0.319749 0.09989,0.0999 -0.345643,0.44073 -0.562915,0.580888 -0.562915,0.363125 z m 123.402994,-1.55375 -0.504029,-0.595312 0.595313,0.504028 c 0.327422,0.277215 0.595312,0.545105 0.595312,0.595313 0,0.211733 -0.212934,0.05542 -0.686596,-0.504029 z M -30.00852,42.322192 c 1.010841,-1.018646 1.897423,-1.852083 1.970184,-1.852083 0.07276,0 -0.69476,0.833437 -1.7056,1.852083 -1.010841,1.018646 -1.897423,1.852084 -1.970183,1.852084 -0.07276,0 0.694759,-0.833438 1.705599,-1.852084 z m 109.776952,0.727604 -0.504028,-0.595312 0.595312,0.504028 c 0.559446,0.473662 0.715762,0.686597 0.504029,0.686597 -0.05021,0 -0.318098,-0.267891 -0.595313,-0.595313 z M -22.467894,42.486881 c 0,-0.05494 0.208359,-0.263302 0.463021,-0.463021 0.419645,-0.329108 0.429003,-0.319749 0.0999,0.0999 -0.345644,0.440729 -0.562917,0.580887 -0.562917,0.363126 z M 77.809195,41.39615 c -0.181157,-0.218281 -0.269846,-0.396875 -0.197085,-0.396875 0.07276,0 0.280511,0.178594 0.461669,0.396875 0.181157,0.218282 0.269846,0.396875 0.197085,0.396875 -0.07276,0 -0.280511,-0.178593 -0.461669,-0.396875 z m 5.927988,-1.785937 -0.504029,-0.595313 0.595313,0.504028 c 0.327421,0.277216 0.595312,0.545106 0.595312,0.595313 0,0.211734 -0.212934,0.05542 -0.686596,-0.504028 z M -26.172061,38.782714 c 0,-0.05494 0.208359,-0.263302 0.463021,-0.463021 0.419645,-0.329108 0.429003,-0.319749 0.0999,0.09989 -0.345644,0.440729 -0.562917,0.580887 -0.562917,0.363126 z m 107.685423,-1.09073 c -0.181157,-0.218282 -0.269846,-0.396875 -0.197085,-0.396875 0.07276,0 0.280511,0.178593 0.461669,0.396875 0.181157,0.218281 0.269845,0.396875 0.197085,0.396875 -0.07276,0 -0.280511,-0.178594 -0.461669,-0.396875 z m -64.343363,-13.5422 c 0.190995,-0.07643 0.419201,-0.06703 0.507119,0.02089 0.08792,0.08792 -0.06835,0.150453 -0.347266,0.138964 -0.308226,-0.01269 -0.370919,-0.07539 -0.159853,-0.159852 z M 19.286666,23.8852 c 0.190995,-0.07643 0.4192,-0.06703 0.507119,0.02089 0.08792,0.08792 -0.06835,0.150453 -0.347266,0.138965 -0.308226,-0.0127 -0.370919,-0.07539 -0.159853,-0.159853 z m 17.991668,0 c 0.190994,-0.07643 0.4192,-0.06703 0.507118,0.02089 0.08792,0.08792 -0.06835,0.150453 -0.347265,0.138965 -0.308227,-0.0127 -0.37092,-0.07539 -0.159853,-0.159853 z M 21.651379,23.626129 c 0.181901,-0.0734 0.479558,-0.0734 0.661459,0 0.181901,0.0734 0.03307,0.133452 -0.330729,0.133452 -0.363802,0 -0.512631,-0.06005 -0.33073,-0.133452 z m 12.981121,-0.0055 c 0.190995,-0.07643 0.419201,-0.06703 0.507119,0.02089 0.08792,0.08792 -0.06835,0.150453 -0.347266,0.138964 -0.308226,-0.01269 -0.370919,-0.07539 -0.159853,-0.159852 z m -7.416001,-0.279212 c 0.768863,-0.05362 1.959488,-0.05305 2.645833,0.0012 0.686345,0.0543 0.05728,0.09817 -1.397931,0.09748 -1.455209,-6.88e-4 -2.016766,-0.04512 -1.247902,-0.09873 z m 11.913918,-4.483289 c 0.190995,-0.07643 0.419201,-0.06703 0.507119,0.02089 0.08792,0.08792 -0.06835,0.150453 -0.347266,0.138964 -0.308226,-0.0127 -0.370919,-0.07539 -0.159853,-0.159852 z M 19.551249,18.593533 c 0.190995,-0.07643 0.419201,-0.06703 0.507119,0.02089 0.08792,0.08792 -0.06835,0.150452 -0.347266,0.138964 -0.308226,-0.0127 -0.370919,-0.07539 -0.159853,-0.159853 z m 17.462501,0 c 0.190995,-0.07643 0.419201,-0.06703 0.507119,0.02089 0.08792,0.08792 -0.06835,0.150452 -0.347266,0.138964 -0.308226,-0.0127 -0.370919,-0.07539 -0.159853,-0.159853 z M 22.440094,18.336141 c 0.179131,-0.07248 0.536319,-0.07689 0.793751,-0.0098 0.257431,0.06708 0.110868,0.126381 -0.325695,0.131774 -0.436562,0.0054 -0.647186,-0.0495 -0.468056,-0.12197 z m 11.112501,0 c 0.179131,-0.07248 0.536319,-0.07689 0.79375,-0.0098 0.257432,0.06708 0.110869,0.126381 -0.325694,0.131774 -0.436563,0.0054 -0.647187,-0.0495 -0.468056,-0.12197 z"
           style="fill:#fdfdfd;stroke-width:0.26458335" />
        <path
           id="path6354"
           d="m 20.659192,182.52979 c -19.2374163,-1.90675 -36.927134,-10.25234 -50.500263,-23.82483 -12.820029,-12.81942 -20.60555,-28.43222 -23.372707,-46.87078 -0.765713,-5.10221 -0.834085,-16.604237 -0.128532,-21.622402 2.198649,-15.637635 7.859012,-28.999375 17.373028,-41.010419 2.822418,-3.563183 9.402431,-10.144075 12.972221,-12.973955 C -15.505788,30.28885 -6.0237241,25.167513 2.7041477,22.34598 21.153936,16.381562 40.864271,16.959867 58.626903,23.986764 c 23.716666,9.382314 41.821817,29.249843 48.897567,53.657305 8.11971,28.008541 0.7191,58.422531 -19.361581,79.569571 -11.153317,11.7456 -26.166938,20.23162 -41.971404,23.72313 -5.539359,1.22376 -9.565307,1.65304 -16.404168,1.74917 -3.638021,0.0511 -7.745677,-0.0191 -9.128125,-0.15615 z m 17.330209,-5.40023 c 18.357769,-2.4111 34.278755,-10.57277 46.971382,-24.07924 9.362004,-9.96228 16.250467,-23.22356 19.026407,-36.62854 1.03504,-4.99825 1.36274,-8.0117 1.51228,-13.90688 0.11138,-4.390849 0.0429,-6.795817 -0.27861,-9.78958 C 103.23711,74.255521 95.335874,58.040763 82.010321,45.09311 64.851303,28.420705 40.885068,20.717803 17.026621,24.206931 c -16.22730669,2.373128 -31.4259,10.051015 -43.196499,21.821611 -9.082905,9.082908 -15.874522,20.436764 -19.454044,32.522215 -2.17219,7.333914 -3.100076,13.844231 -3.113822,21.847483 -0.02103,12.24177 2.298479,22.58201 7.493755,33.40679 8.491559,17.69287 23.036604,31.26658 41.26567962,38.50991 6.15408968,2.44533 13.88535838,4.35594 19.97604238,4.93663 1.60073,0.15261 3.386667,0.32476 3.968751,0.38256 2.163448,0.21481 10.95392,-0.10149 14.022917,-0.50457 z M -6.1960181,157.15868 c -3.1316826,-1.03897 -5.8053769,-3.78639 -6.7842959,-6.97138 -0.773549,-2.51679 -0.621315,-5.76584 0.371415,-7.92701 0.911767,-1.98491 3.2232916,-4.39388 5.1548426,-5.37214 1.4074035,-0.71281 1.7428529,-0.77116 4.4330385,-0.77116 2.58703778,0 3.07210637,0.0766 4.3656253,0.68931 0.8003646,0.37912 1.9693653,1.15303 2.5977798,1.71979 l 1.1425715,1.03048 -1.205836,1.17674 -1.205836,1.17674 -0.7304855,-0.68461 c -2.80463111,-2.6285 -7.2131295,-2.53401 -9.9606291,0.21349 -1.5358772,1.53587 -2.1209901,3.02453 -2.1199871,5.39369 0.0011,2.22315 0.5671792,3.67144 2.0520897,5.2487 1.8563406,1.9718 5.1015242,2.69348 7.71054089,1.71472 l 1.32291675,-0.49628 0.13229166,-3.29972 0.1322917,-3.29972 1.6536459,-0.0788 1.653646,-0.0788 v 3.96211 3.96212 L 3.52742,155.2895 c -2.68404198,2.22497 -6.461935,2.95121 -9.7234381,1.86918 z m 31.3098331,0.0299 c -1.996414,-0.65941 -3.071233,-1.3546 -4.567447,-2.95417 -1.499489,-1.60308 -2.470123,-3.62136 -2.85311,-5.93261 l -0.283435,-1.71048 -0.726052,1.00228 c -0.399327,0.55126 -1.16469,1.36385 -1.700807,1.80577 l -0.97476,0.80347 2.083528,3.27584 c 1.145942,1.8017 2.173192,3.42466 2.282777,3.60656 0.152324,0.25284 -0.26602,0.33073 -1.776457,0.33073 h -1.975705 l -2.048624,-3.30729 c -1.961814,-3.16715 -2.086171,-3.30729 -2.9347028,-3.30729 H 8.7529411 v 3.30729 3.30729 h -1.5875 -1.5875001 v -10.7422 -10.74219 l 3.3928157,0.0927 c 3.1577653,0.0863 3.5006683,0.1479 4.9495743,0.88922 1.903277,0.97379 3.153233,2.52265 3.740518,4.635 l 0.426738,1.5349 0.660641,-1.32573 c 1.997284,-4.00803 6.784494,-6.54058 10.969885,-5.80334 5.909829,1.04099 9.938253,6.61445 8.97639,12.41912 -0.625079,3.77223 -3.333719,7.2804 -6.582932,8.52606 -2.122826,0.81384 -5.043686,0.93449 -6.997756,0.28906 z m 5.864127,-3.49707 c 2.607803,-1.178 4.233501,-3.50777 4.438288,-6.36046 0.230217,-3.20694 -1.233874,-5.8776 -4.00494,-7.30544 -1.830948,-0.94343 -4.472215,-0.97992 -6.325722,-0.0874 -1.61635,0.77832 -3.217302,2.59987 -3.783658,4.30501 -0.570286,1.71697 -0.408136,4.42135 0.353552,5.89671 1.278747,2.47687 3.859332,4.08942 6.544355,4.08942 1.029158,0 2.006259,-0.18917 2.778125,-0.53784 z m -17.67027,-7.35079 c 1.001437,-0.93413 1.10395,-1.15381 1.203796,-2.57969 0.09174,-1.31007 0.0096,-1.70627 -0.514863,-2.48465 -0.823183,-1.22163 -2.133669,-1.85116 -3.854601,-1.85167 l -1.3890629,-4.1e-4 v 3.96875 3.96875 h 1.7300369 c 1.642372,0 1.785506,-0.0517 2.824694,-1.02108 z m 31.893552,11.06755 c -1.444226,-0.36142 -3.000235,-1.43178 -3.912834,-2.69159 -1.459743,-2.01511 -1.595352,-3.01679 -1.517324,-11.2076 l 0.07042,-7.39207 h 1.5875 1.5875 l 0.132292,7.85253 c 0.124886,7.41298 0.162964,7.89432 0.680265,8.59896 1.724022,2.34838 5.332314,2.04869 6.563156,-0.54512 0.365162,-0.76952 0.429496,-2.03853 0.429496,-8.47188 v -7.56678 h 1.5875 1.5875 v 7.84066 c 0,5.29212 -0.102238,8.18189 -0.314537,8.89048 -0.386268,1.28925 -2.319099,3.48982 -3.670993,4.1795 -1.204172,0.61432 -3.448408,0.85364 -4.809941,0.51291 z m 10.181532,-10.64178 0.06915,-10.64948 3.439584,0.005 c 3.20897,0.004 3.529878,0.052 4.786318,0.71061 2.535875,1.32921 3.835083,3.34226 4.022566,6.23274 0.113816,1.75474 0.05209,2.06827 -0.713356,3.6231 -1.375177,2.79338 -3.559024,4.11322 -6.805877,4.11322 h -1.686526 v 3.30729 3.30729 H 56.90411 55.313607 Z m 7.072885,0.20243 c 1.885383,-0.97497 2.659012,-3.96445 1.44658,-5.58994 -1.006719,-1.34968 -1.859664,-1.79041 -3.690668,-1.907 l -1.716942,-0.10932 v 3.99957 3.99957 h 1.600639 c 0.898075,0 1.934115,-0.17245 2.360391,-0.39288 z M -6.3985646,132.53616 c -3.0810281,-0.77024 -5.7407314,-3.60331 -5.7491024,-6.12383 -0.0011,-0.31032 0.429588,-0.56956 1.428308,-0.8599 1.9382478,-0.56346 2.0097991,-0.54602 2.0097991,0.49009 0,1.70937 1.9943578,3.32759 4.1010419,3.32759 2.1830031,0 4.10104192,-1.61386 4.10104192,-3.45067 0,-1.82683 -1.66667932,-3.1858 -5.67818362,-4.62987 -1.7268984,-0.62166 -3.7444655,-2.6142 -3.9940313,-3.94449 -0.450268,-2.40014 0.5489868,-4.42587 2.8045493,-5.68551 2.8410325,-1.58661 7.0859019,-0.16612 8.18358149,2.73852 0.34443461,0.91143 0.26919771,0.99719 -1.43011004,1.63007 -1.10971015,0.4133 -1.32388245,0.42877 -1.43231135,0.10348 -0.07012,-0.21036 -0.4560597,-0.71105 -0.8576417,-1.11263 -0.9667531,-0.96675 -2.3758817,-1.00125 -3.2964201,-0.0807 -1.2841235,1.28412 -0.4784461,2.58631 2.2252306,3.59657 4.58815312,1.71442 6.9119702,4.20085 6.9119702,7.39566 0,1.63941 -0.5392738,2.94705 -1.748515,4.23982 -1.87907358,2.00889 -5.0489885,2.99836 -7.579207,2.36581 z m 14.0931724,-8.98688 v -8.99583 H 4.9164826 2.1383574 v -1.72405 -1.72404 l 7.2098963,0.0704 7.2098963,0.0704 v 1.5875 1.5875 l -2.711979,0.0754 -2.71198,0.0754 v 8.98658 8.98657 H 9.4143995 7.6946078 Z m 14.3601502,8.55819 c -1.493687,-0.52891 -3.591663,-2.45746 -4.351354,-3.99997 -0.602869,-1.22409 -0.616087,-1.4184 -0.616087,-9.05614 v -7.80521 l 1.635389,-0.0783 1.63539,-0.0783 0.0844,7.63124 c 0.0947,8.56236 0.06618,8.42942 2.097037,9.77338 0.87624,0.57987 1.373902,0.70987 2.705556,0.70677 1.78371,-0.004 2.827856,-0.42021 3.880768,-1.54636 l 0.661458,-0.70747 0.132292,-7.85048 0.132292,-7.85049 h 1.719792 1.719791 l 0.07049,7.25954 c 0.08621,8.87853 -0.01484,9.39669 -2.272395,11.6519 -1.027735,1.02666 -1.914129,1.64076 -2.806163,1.94411 -1.615157,0.54926 -4.885487,0.5522 -6.428656,0.006 z m 13.421101,-10.31819 v -10.75583 l 2.71198,0.17226 c 4.63913,0.29466 7.08682,1.26128 9.407565,3.71512 2.110222,2.23125 2.82012,3.96858 2.825253,6.91422 0.0038,2.17268 -0.07462,2.54684 -0.873908,4.17043 -2.11027,4.28656 -6.272912,6.49933 -12.284952,6.5304 l -1.785938,0.009 z m 6.659701,6.61851 c 2.768918,-0.87197 4.816602,-3.66861 4.816602,-6.5783 0,-3.71143 -2.652686,-6.39771 -7.044531,-7.13374 l -0.992188,-0.16628 v 7.30002 7.30002 l 0.992188,-0.16628 c 0.545703,-0.0915 1.54827,-0.3414 2.227929,-0.55544 z m 15.741691,3.96093 c -0.09701,-0.097 -0.17639,-2.05387 -0.17639,-4.34858 v -4.1722 l -4.101042,-6.22228 c -2.255573,-3.42225 -4.101042,-6.28742 -4.101042,-6.36704 0,-0.0796 0.879404,-0.14476 1.954228,-0.14476 h 1.954229 l 3.062393,4.65325 3.062391,4.65324 3.081923,-4.65324 3.081925,-4.65325 h 1.955623 c 1.075592,0 1.955623,0.0517 1.955623,0.11486 0,0.0632 -1.905001,3.00284 -4.233334,6.5326 l -4.233334,6.41774 v 4.18303 4.18302 h -1.543402 c -0.848873,0 -1.622779,-0.0794 -1.719791,-0.17639 z M -17.44081,107.28408 c 0,-0.27419 30.757242,-28.493619 31.251267,-28.672697 0.138102,-0.05006 0.991423,0.547071 1.896269,1.326957 0.904846,0.779884 1.838124,1.566773 2.07395,1.74864 0.36889,0.284485 1.07098,-0.246621 5.027083,-3.802801 2.529071,-2.273406 5.340933,-4.859865 6.248589,-5.747685 l 1.650277,-1.614215 0.863265,0.817502 c 7.651888,7.246274 12.157723,11.334489 12.938115,11.738955 0.529293,0.274325 1.774846,0.628568 2.767896,0.787209 0.993048,0.158639 1.985304,0.430961 2.205011,0.605155 0.219705,0.174197 4.274625,3.888595 9.010929,8.25422 4.736306,4.365625 10.186853,9.36577 12.112326,11.11145 1.925474,1.74567 3.500861,3.26371 3.500861,3.37343 0,0.10972 -20.597813,0.1995 -45.772919,0.1995 -25.1751057,0 -45.772919,-0.0565 -45.772919,-0.12562 z m 75.538546,-2.26154 10.583334,-0.006 -1.195941,-1.11835 C 65.867181,102.38487 50.700639,88.4519 49.33732,87.22609 c -0.897223,-0.806728 -1.439418,-1.045146 -3.098853,-1.362646 -1.106244,-0.211662 -2.283746,-0.527029 -2.616668,-0.700818 -0.850588,-0.444019 -3.481216,-2.752942 -7.348755,-6.450061 -1.8209,-1.740664 -3.809072,-3.63316 -4.418159,-4.205547 l -1.107434,-1.040704 -1.670691,1.589799 c -0.918882,0.874388 -3.741346,3.448492 -6.272146,5.720234 l -4.601451,4.130437 -1.30465,-1.117814 c -0.717558,-0.614797 -1.682999,-1.43206 -2.145425,-1.81614 l -0.840772,-0.698325 -2.645833,2.378834 C 9.8112745,84.961701 4.013457,90.276572 -1.617554,95.464168 l -10.238204,9.431982 12.48716243,0.15756 c 6.86793817,0.0867 20.22622457,0.11653 29.68507957,0.0664 9.458855,-0.0502 21.960418,-0.094 27.781252,-0.0975 z m -4.7625,-10.170822 C 49.494345,93.868892 45.018709,92.349969 43.102652,91.37903 l -1.264632,-0.640837 -0.567769,1.125855 c -0.312275,0.619221 -0.607497,1.170295 -0.656051,1.224609 -0.04855,0.05432 -1.489601,-1.225606 -3.202329,-2.844271 -1.712724,-1.618663 -3.235941,-2.9424 -3.384926,-2.941638 -0.148981,7.94e-4 -1.33187,1.550543 -2.628638,3.443954 l -2.35776,3.442571 -2.059414,-2.00411 -2.059413,-2.004111 -1.952927,1.602865 c -1.074111,0.881573 -2.156201,1.602862 -2.404645,1.602862 -0.618268,0 -2.847557,-1.144641 -5.00597,-2.570343 l -1.793721,-1.184812 -1.12743,0.923845 c -0.960636,0.787168 -1.924026,1.14658 -6.5119065,2.429397 C 3.1636602,93.812922 0.54911636,94.551324 0.31502359,94.625762 -0.49873425,94.884524 7.0447381,88.301058 12.620591,83.886241 l 1.354109,-1.07215 1.948228,1.714469 c 1.071528,0.942956 2.053436,1.714468 2.182024,1.714468 0.263964,0 4.558321,-3.769802 9.301115,-8.164986 1.74625,-1.618266 3.258117,-2.943474 3.359701,-2.944908 0.270449,-0.0038 2.742057,2.114656 7.091342,6.078154 2.110052,1.922888 4.149399,3.658643 4.531886,3.857231 0.382485,0.198588 1.560653,0.600837 2.618151,0.893884 1.057499,0.293047 2.167913,0.743963 2.467588,1.002033 0.821479,0.707427 8.694183,7.750014 9.292734,8.312883 0.662384,0.622896 0.668036,0.623597 -3.432233,-0.425601 z M 48.00658,89.947195 c -1.117465,-1.018646 -2.178823,-1.852083 -2.358576,-1.852083 -0.98576,0 -3.954999,-1.198592 -5.089903,-2.054638 -0.720463,-0.543439 -2.902842,-2.436866 -4.849731,-4.207616 -1.946892,-1.770751 -3.854262,-3.465839 -4.238604,-3.76686 l -0.698802,-0.547315 -3.534532,3.253227 c -1.943991,1.789274 -4.711012,4.282485 -6.148935,5.540465 l -2.614401,2.287239 -0.978583,-0.499237 c -0.538221,-0.27458 -1.561402,-1.026893 -2.273731,-1.67181 l -1.295149,-1.172572 -3.114916,2.522585 c -1.7132063,1.387419 -3.0673995,2.570104 -3.0093181,2.628183 0.3200109,0.320011 3.0266461,-0.864256 4.3481861,-1.902518 0.842095,-0.661586 1.623807,-1.202883 1.737138,-1.202883 0.113332,0 0.659101,0.386953 1.212821,0.859895 0.55372,0.472943 1.922825,1.380136 3.042457,2.015985 2.383505,1.353614 2.366479,1.356638 4.845069,-0.860811 1.927178,-1.724136 1.827716,-1.735656 4.231905,0.490199 l 1.556523,1.441066 2.297491,-3.283958 c 1.263621,-1.806176 2.393037,-3.343005 2.509814,-3.415178 0.116779,-0.07217 1.609529,1.127164 3.317227,2.665193 l 3.104901,2.796416 0.579734,-0.521293 c 0.991473,-0.891522 1.182227,-0.903626 2.620338,-0.166301 1.773068,0.909058 5.749203,2.448621 6.365114,2.464575 0.290663,0.0075 -0.302242,-0.690197 -1.563537,-1.839955 z M -7.6512265,56.212818 V 45.497192 h 3.3924507 c 3.89130665,0 5.3819216,0.370885 6.7764214,1.686068 1.0935732,1.031373 1.6944182,2.814588 1.289775,3.827855 -0.1545802,0.387082 -0.3514196,0.88238 -0.437425,1.100661 -0.106524,0.270367 0.2742829,0.69206 1.194652,1.322917 4.8517389,3.325569 4.2506558,9.501598 -1.1834469,12.159713 -2.1486391,1.051018 -3.79521007,1.334038 -7.7612483,1.334038 h -3.2711789 z m 8.01222145,6.895783 C 4.1422958,61.759586 5.2077386,58.713112 2.6606979,56.53294 1.3640807,55.423084 0.07641704,55.022193 -2.191819,55.022193 h -1.7552406 v 4.233334 4.233333 l 1.6536459,-0.01161 c 0.9095053,-0.0064 2.10398797,-0.172278 2.65440865,-0.368647 z M -0.19758019,50.880143 c 1.12197893,-1.015378 0.0614865,-1.943367 -2.22085181,-1.943367 h -1.5286276 v 1.190625 1.190625 h 1.6328126 c 1.1480536,0 1.7764629,-0.13 2.11666681,-0.437883 z M 9.9876643,66.752054 C 9.8906495,66.655042 9.8112745,61.83301 9.8112745,56.036428 V 45.497192 h 1.8520835 1.852083 v 10.715626 10.715626 h -1.675693 c -0.921634,0 -1.755072,-0.07937 -1.8520837,-0.17639 z M 16.690442,56.24443 V 45.497192 h 3.406317 c 4.902992,0 6.915995,0.854993 7.86528,3.340656 0.441701,1.156579 0.443939,1.308129 0.03607,2.442353 -0.239165,0.665094 -0.410683,1.220949 -0.381153,1.235237 0.02953,0.01429 0.660114,0.461534 1.401297,0.993883 5.182965,3.72263 3.926541,10.171079 -2.463536,12.643806 -1.280398,0.495467 -2.209506,0.612116 -5.697091,0.715277 l -4.167187,0.123262 z m 8.012221,6.864171 c 2.400739,-0.856486 3.629446,-2.257253 3.629446,-4.137689 0,-0.984303 -0.14532,-1.268252 -1.13379,-2.215373 -1.338347,-1.282361 -2.651866,-1.733346 -5.04847,-1.733346 h -1.75524 v 4.233334 4.233333 l 1.653645,-0.01161 c 0.909506,-0.0064 2.103988,-0.172278 2.654409,-0.368647 z M 24.144088,50.880143 c 1.121979,-1.015378 0.06149,-1.943367 -2.220852,-1.943367 h -1.528627 v 1.190625 1.190625 h 1.632812 c 1.148054,0 1.776463,-0.13 2.116667,-0.437883 z m 9.744271,5.332675 V 45.497192 h 1.852084 1.852083 v 8.995834 8.995834 h 5.027084 5.027084 v 1.719792 1.719792 h -6.879168 -6.879167 z m 15.466654,10.384264 c -0.06994,-0.18225 -0.09596,-4.974516 -0.05784,-10.64948 l 0.06931,-10.318118 7.606772,-0.07021 7.606771,-0.0702 v 1.723847 1.723851 h -5.688542 -5.688542 v 2.778125 2.778125 h 5.688542 5.688542 v 1.719792 1.719792 h -5.688542 -5.688542 v 2.778125 2.778125 h 5.688542 5.688542 v 1.719792 1.719792 H 57.0311 c -5.80276,0 -7.578345,-0.07665 -7.676087,-0.331362 z"
           style="fill:#fcfcfc;stroke-width:0.26458335" />
      </g>
      <g
         transform="matrix(0.01678367,0,0,0.01678367,39.90227,117.44983)"
         id="g6440">
        <g
           id="g6374">
          <g
             id="g6372">
            <path
               style="fill:#ffffff"
               d="M 256,0 C 156.595,0 75.726,82.14 75.726,183.099 V 328.906 C 75.726,429.865 156.595,512 256,512 355.399,512 436.274,430.114 436.274,329.466 V 183.099 C 436.274,82.14 355.399,0 256,0 Z m 146.366,329.466 c 0,81.954 -65.656,148.627 -146.366,148.627 -80.705,0 -146.366,-66.927 -146.366,-149.192 V 183.099 c 0,-82.265 65.661,-149.192 146.366,-149.192 80.711,0 146.366,66.927 146.366,149.192 z"
               id="path6370" />
          </g>
        </g>
        <g
           id="g6380">
          <g
             id="g6378">
            <path
               style="fill:#ffffff"
               d="m 256,140.15 c -9.364,0 -16.954,7.59 -16.954,16.954 v 59.338 c 0,9.364 7.59,16.954 16.954,16.954 9.364,0 16.954,-7.59 16.954,-16.954 v -59.338 c 0,-9.364 -7.59,-16.954 -16.954,-16.954 z"
               id="path6376" />
          </g>
        </g>
        <g
           id="g6382" />
        <g
           id="g6384" />
        <g
           id="g6386" />
        <g
           id="g6388" />
        <g
           id="g6390" />
        <g
           id="g6392" />
        <g
           id="g6394" />
        <g
           id="g6396" />
        <g
           id="g6398" />
        <g
           id="g6400" />
        <g
           id="g6402" />
        <g
           id="g6404" />
        <g
           id="g6406" />
        <g
           id="g6408" />
        <g
           id="g6410" />
      </g>
    </g>
  </g>
</svg>
