<?xml version="1.0" encoding="iso-8859-1"?>
<!-- Generator: Adobe Illustrator 19.0.0, SVG Export Plug-In . SVG Version: 6.00 Build 0)  -->
<svg version="1.1" id="Capa_1" xmlns="http://www.w3.org/2000/svg" xmlns:xlink="http://www.w3.org/1999/xlink" x="0px" y="0px"
	 viewBox="0 0 512 512" style="enable-background:new 0 0 512 512;" xml:space="preserve">
<linearGradient id="SVGID_1_" gradientUnits="userSpaceOnUse" x1="39" y1="258" x2="473" y2="258" gradientTransform="matrix(1 0 0 -1 0 514)">
	<stop  offset="0" style="stop-color:#80D8FF"/>
	<stop  offset="1" style="stop-color:#EA80FC"/>
</linearGradient>
<path style="fill:url(#SVGID_1_);" d="M448.237,409.895H249.956c-7.346-29.232-30.402-52.285-59.637-59.63V75.646
	c0-20.201-7.871-39.196-22.163-53.486C153.864,7.87,134.863,0,114.655,0C72.939,0,39,33.935,39,75.646v34.955
	c0,11.046,8.955,20,20.002,20s20.002-8.954,20.002-20V75.646C79.004,55.991,94.997,40,114.655,40
	c9.523,0,18.478,3.709,25.215,10.445c6.736,6.735,10.445,15.686,10.445,25.202v274.618c-35.641,8.955-62.112,41.255-62.112,79.63
	c0,45.273,36.836,82.105,82.114,82.105c38.38,0,70.683-26.469,79.639-62.105h198.281c11.047,0,20.002-8.954,20.002-20
	S459.284,409.895,448.237,409.895z M170.317,472c-23.219,0-42.11-18.888-42.11-42.105s18.891-42.105,42.11-42.105
	s42.11,18.888,42.11,42.105S193.537,472,170.317,472z M452.998,151.649c-54.18,0-168.725,0-207.04,0
	c-11.047,0-20.002,8.954-20.002,20v175.439c0,11.046,8.955,20,20.002,20h207.04c11.047,0,20.002-8.954,20.002-20V171.649
	C473,160.603,464.045,151.649,452.998,151.649z M364.567,191.649v47.72h-30.179v-47.72H364.567z M432.996,327.088H265.96V191.649
	h28.424v67.72c0,11.046,8.955,20,20.002,20h70.183c11.047,0,20.002-8.954,20.002-20v-67.72h28.424L432.996,327.088L432.996,327.088z
	"/>
<g>
</g>
<g>
</g>
<g>
</g>
<g>
</g>
<g>
</g>
<g>
</g>
<g>
</g>
<g>
</g>
<g>
</g>
<g>
</g>
<g>
</g>
<g>
</g>
<g>
</g>
<g>
</g>
<g>
</g>
</svg>
